<svg xmlns="http://www.w3.org/2000/svg" width="41.359" height="35.588" viewBox="0 0 41.359 35.588">
  <g id="noun-cart-1416448" transform="translate(-109.201 -72.8)">
    <path id="Path_2" data-name="Path 2" d="M110.163,72.8a.962.962,0,0,0,0,1.924h5.125l1.683,4.193,5.621,14.067-2.254,5.41a1.011,1.011,0,0,0,.887,1.337H145.27a.962.962,0,0,0,0-1.924h-22.6l1.848-4.449a.971.971,0,0,0,0-.721L118.744,78.21,116.821,73.4a.986.986,0,0,0-.887-.6Zm10.1,5.771,2.585,6.252h7.033V78.571Zm11.542,0v6.252h6.733V78.571Zm8.657,0v6.252h8.657l1.443-6.252Zm-16.817,8.176,2.389,5.771,3.847-.256V86.746Zm8.16,0v5.38l6.733-.436V86.746Zm8.657,0v4.809l7.214-.481.992-4.328Zm-14.428,14.908a3.366,3.366,0,1,0,3.366,3.366A3.366,3.366,0,0,0,126.033,101.655Zm14.428,0a3.366,3.366,0,1,0,3.366,3.366A3.366,3.366,0,0,0,140.461,101.655Z" fill="#0a3047"/>
  </g>
</svg>
