<svg xmlns="http://www.w3.org/2000/svg" width="396.085" height="411.355" viewBox="0 0 396.085 411.355">
  <g id="Group_38" data-name="Group 38" transform="translate(-18958 -2553.048)">
    <path id="Path_547" data-name="Path 547" d="M432.051,439.409H36.634c-.184,0-.334-.234-.334-.521s.149-.521.334-.521H432.051c.184,0,.334.233.334.521s-.15.521-.334.521" transform="translate(18921.699 2524.994)" fill="#173449"/>
    <g id="Group_37" data-name="Group 37" transform="translate(1610.965 -406.427)">
      <path id="Path_57" data-name="Path 57" d="M296.827,63.781A33.983,33.983,0,0,0,310.5,33.909a.664.664,0,0,0-.986-.566c-3.668,1.92-7.4,4.734-8.364,9-.818,3.626.571,7.529,4.168,9,3.47,1.416,7.6.262,10.777-1.391A34.489,34.489,0,0,0,326.147,41.7a31.75,31.75,0,0,0,6.436-10.937c.668-2.247.37-6.941-3.121-6.238-1.749.351-2.939,2.15-3.815,3.564a17.8,17.8,0,0,0-2.3,5.68c-.758,3.6-.268,7.531,2.268,10.341,2.96,3.282,7.828,3.933,11.949,2.969,5.129-1.2,9.256-4.862,13.1-8.258.632-.56-.3-1.484-.926-.927-5.264,4.656-12.1,10.349-19.651,7.634-7.329-2.639-6.652-11.654-3.108-17.09.717-1.1,2.763-3.935,4.133-2.067.755,1.031.564,2.753.25,3.9a28.493,28.493,0,0,1-5.163,9.3,35.715,35.715,0,0,1-7.77,7.4c-2.748,1.911-5.877,3.535-9.291,3.671-4.049.161-7.234-2.582-6.9-6.793.357-4.515,4.235-7.431,7.937-9.37l-.985-.566A32.667,32.667,0,0,1,296.166,62.65c-.673.494-.021,1.631.661,1.132" transform="translate(17226.576 2955.61)" fill="#ffbf73"/>
      <path id="Path_58" data-name="Path 58" d="M505.128,155.438A44.932,44.932,0,0,1,491.5,125.279c-.1-2.411-.243-5.31,1.148-7.419,1.991-3.018,5.313-.963,7.2,1s4.382,4.753,4.171,7.675c-.193,2.638-2.629,4.025-4.95,4.565-4.928,1.148-10.756-.46-15.149-2.71a20.969,20.969,0,0,1-10.651-11.916,18.829,18.829,0,0,1-.86-7.715,16.172,16.172,0,0,1,.915-3.943c.513-1.385,1.075-3.261,2.887-2.874,2.621.558,4.268,3.428,4.785,5.847a11.025,11.025,0,0,1-.891,7.046c-2.7,5.511-9.643,7.155-15.151,5.382-5.956-1.918-9.879-7.582-11.374-13.427a.656.656,0,0,0-1.264.348c1.523,5.952,5.386,11.577,11.225,13.953,5.386,2.193,12.421,1.257,16.264-3.388,3.4-4.112,3.79-10.744.169-14.85-1.324-1.5-4.977-3.695-6.5-1.315a16.867,16.867,0,0,0-2.466,8.766c-.2,13.235,12.694,22.611,25.183,22.438a11.334,11.334,0,0,0,7.023-2.138,5.979,5.979,0,0,0,1.5-7.183c-1.715-4-8.8-12.338-13.016-6.484-1.84,2.557-1.645,6.207-1.463,9.179a45.685,45.685,0,0,0,2.144,11.275,46.208,46.208,0,0,0,11.82,18.974c.608.585,1.534-.341.927-.927" transform="translate(17216.688 2950.803)" fill="#ffbf73"/>
      <path id="Path_62" data-name="Path 62" d="M145.892,3.278c6.175,19.139,22.39,34.609,40.764,42.218,9.309,3.856,21.156,4.748,28.536-3.408,2.892-3.2,4.6-7.726,3.424-12.009a7.428,7.428,0,0,0-9.268-5.392c-10.646,2.786-8.48,16.677-5.439,24.328,3.425,8.618,10.157,16.524,19.317,19.174,8,2.317,17.584.378,23.409-5.783,2.713-2.87,4.433-6.459,4.009-10.474-.331-3.14-2.123-6.446-5.636-6.572-4.513-.162-6.952,4.754-7.527,8.56a22.566,22.566,0,0,0,2.588,13.658c5.057,9.856,14.407,16.931,22.57,24.069l7.29,6.376c.632.553,1.563-.37.926-.926l-13-11.372a115.357,115.357,0,0,1-10.319-9.868c-5.644-6.325-11.367-15.547-8.118-24.342.731-1.978,2.134-4.075,4.265-4.691a4,4,0,0,1,4.366,1.51c1.965,2.664,1.7,6.891.187,9.688-3.806,7.054-12.333,10.289-20.021,9.736-8.607-.619-15.847-6.337-20.241-13.505a37.673,37.673,0,0,1-4.709-11.9c-.958-4.56-1.233-10.376,2.3-13.979,2.9-2.961,8.249-3.971,10.849-.078,2.5,3.752,1.064,8.9-1.546,12.173-6.274,7.868-17.2,7.7-25.859,4.547a73.535,73.535,0,0,1-23.682-14.737A65.893,65.893,0,0,1,149.537,9.1a56.278,56.278,0,0,1-2.381-6.169c-.259-.8-1.523-.457-1.264.348" transform="translate(17236.063 2957)" fill="#f47471"/>
      <path id="Path_64" data-name="Path 64" d="M159.92,101.275v-1.231a2.693,2.693,0,0,0-2.62-2.62l-.7.094a2.623,2.623,0,0,0-1.156.674l-.41.531a2.6,2.6,0,0,0-.357,1.322v1.231a2.9,2.9,0,0,0,.767,1.853,2.917,2.917,0,0,0,1.853.767l.7-.094a2.617,2.617,0,0,0,1.157-.674q.2-.266.409-.53a2.606,2.606,0,0,0,.358-1.323" transform="translate(17235.506 2950.996)" fill="#f47471"/>
      <path id="Path_66" data-name="Path 66" d="M295.225,157.839v1.231a2.694,2.694,0,0,0,2.62,2.62l.7-.094a2.622,2.622,0,0,0,1.156-.674l.41-.531a2.611,2.611,0,0,0,.358-1.322v-1.231a2.911,2.911,0,0,0-.768-1.853,2.917,2.917,0,0,0-1.853-.767l-.7.094a2.617,2.617,0,0,0-1.157.674l-.409.53a2.6,2.6,0,0,0-.358,1.323" transform="translate(17226.619 2947.342)" fill="#f47471"/>
      <path id="Path_68" data-name="Path 68" d="M267.64,42.243c3.372,0,3.378-5.24,0-5.24s-3.378,5.24,0,5.24" transform="translate(17228.521 2954.817)" fill="#f47471"/>
      <path id="Path_69" data-name="Path 69" d="M480.429,324.648c3.372,0,3.378-5.241,0-5.241s-3.378,5.241,0,5.241" transform="translate(17215.068 2936.96)" fill="#f47471"/>
      <path id="Path_70" data-name="Path 70" d="M303.105,354.859c3.372,0,3.378-5.241,0-5.241s-3.378,5.241,0,5.241" transform="translate(17226.279 2935.05)" fill="#f47471"/>
      <path id="Path_71" data-name="Path 71" d="M314.927,297.064c3.372,0,3.378-5.241,0-5.241s-3.378,5.241,0,5.241" transform="translate(17225.533 2938.704)" fill="#f47471"/>
      <path id="Path_76" data-name="Path 76" d="M131.036,61.953v1.231a2.693,2.693,0,0,0,2.62,2.62l.7-.094a2.622,2.622,0,0,0,1.156-.674l.41-.531a2.611,2.611,0,0,0,.358-1.322V61.953a2.911,2.911,0,0,0-.768-1.853,2.917,2.917,0,0,0-1.853-.767l-.7.094a2.617,2.617,0,0,0-1.157.674c-.136.177-.273.353-.409.53a2.606,2.606,0,0,0-.358,1.323" transform="translate(17237 2953.405)" fill="#ffbf73"/>
      <path id="Path_77" data-name="Path 77" d="M304.419,118.427c3.372,0,3.378-5.241,0-5.241s-3.378,5.241,0,5.241" transform="translate(17226.197 2950)" fill="#ffbf73"/>
      <path id="Path_78" data-name="Path 78" d="M250.565,131.562c3.372,0,3.378-5.241,0-5.241s-3.378,5.241,0,5.241" transform="translate(17229.602 2949.169)" fill="#ffbf73"/>
      <path id="Path_79" data-name="Path 79" d="M414.753,76.4c3.372,0,3.378-5.241,0-5.241s-3.378,5.241,0,5.241" transform="translate(17219.221 2952.657)" fill="#ffbf73"/>
      <path id="Path_82" data-name="Path 82" d="M446.278,293.124c3.372,0,3.378-5.24,0-5.24s-3.378,5.24,0,5.24" transform="translate(17217.227 2938.953)" fill="#ffbf73"/>
      <path id="Path_83" data-name="Path 83" d="M471.234,387.7c3.372,0,3.378-5.24,0-5.24s-3.378,5.24,0,5.24" transform="translate(17215.648 2932.974)" fill="#ffbf73"/>
      <path id="Path_87" data-name="Path 87" d="M276.835,310.2c3.372,0,3.378-5.241,0-5.241s-3.378,5.241,0,5.241" transform="translate(17227.941 2937.874)" fill="#ffbf73"/>
      <path id="Path_88" data-name="Path 88" d="M342.51,339.1c3.372,0,3.378-5.241,0-5.241s-3.378,5.241,0,5.241" transform="translate(17223.789 2936.047)" fill="#ffbf73"/>
      <path id="Path_166" data-name="Path 166" d="M194.349,412.868l-5.631,23.7-42.723.1s-.631-19.165,22.941-12.637l8-12Z" transform="translate(17236.055 2931.104)" fill="#ffbf73"/>
      <path id="Path_167" data-name="Path 167" d="M145.778,436.86l-.007-.2c0-.072-.179-7.3,5.027-11.4,4.02-3.163,10.086-3.666,18.033-1.491l7.981-11.969.119.006,17.664.849-5.727,24.1H188.7Zm14.3-14a14.186,14.186,0,0,0-9.024,2.728c-4.558,3.589-4.855,9.669-4.868,10.852l42.351-.1,5.534-23.293-17.044-.819-8.018,12.024-.145-.041a33.344,33.344,0,0,0-8.786-1.351" transform="translate(17236.068 2931.118)" fill="#173449"/>
      <rect id="Rectangle_39" data-name="Rectangle 39" width="41.236" height="0.841" transform="translate(17382.525 3363.488) rotate(-0.129)" fill="#173449"/>
      <path id="Path_168" data-name="Path 168" d="M174.355,428.877a14.421,14.421,0,0,0-3.572-4.122.72.72,0,0,0-.991,0,.709.709,0,0,0,0,.992,13.908,13.908,0,0,1,1.9,1.8c.141.16.276.324.409.49.013.017.1.134.035.043l.1.134c.06.082.12.162.178.245.261.364.5.742.728,1.129a.7.7,0,1,0,1.21-.707" transform="translate(17234.563 2930.312)" fill="#173449"/>
      <path id="Path_169" data-name="Path 169" d="M168.869,429.629a22.927,22.927,0,0,0-4.9-6.486c-.662-.612-1.656.378-.991.991a21.855,21.855,0,0,1,4.681,6.2.708.708,0,0,0,.958.252.715.715,0,0,0,.252-.959" transform="translate(17234.994 2930.413)" fill="#173449"/>
      <path id="Path_170" data-name="Path 170" d="M162.976,428.58a23.218,23.218,0,0,0-4.187-5.438c-.651-.626-1.644.364-.992.991a21.937,21.937,0,0,1,3.969,5.154c.438.79,1.65.083,1.21-.707" transform="translate(17235.322 2930.414)" fill="#173449"/>
      <path id="Path_171" data-name="Path 171" d="M215.086,245.1q-6.6,19.248-12.078,38.852c-11.015,39.4-18.761,80.14-36.877,116.817A69.513,69.513,0,0,0,199,413.761c7.99-23.5,9.509-48.053,14.424-72.384,5.964-29.523,17.771-57.5,29.821-85.108a31.953,31.953,0,0,0-19.7-11.666c-2.56-.423-5.948,1.124-8.467.5" transform="translate(17234.781 2941.695)" fill="#006a7c"/>
      <path id="Path_172" data-name="Path 172" d="M214.586,259.092A10.728,10.728,0,0,0,222.2,251.2c.047-.207-.272-.3-.319-.087a10.4,10.4,0,0,1-7.388,7.662.165.165,0,0,0,.088.319" transform="translate(17231.73 2941.286)" fill="#173449"/>
      <path id="Path_173" data-name="Path 173" d="M216.13,338.654a17.053,17.053,0,0,0-2.429-5.825,15.415,15.415,0,0,0-1.963-2.452,1.661,1.661,0,0,0-2.006-.543c-1.49.852-1.072,3.029-.195,4.144a3.774,3.774,0,0,0,4.454,1.207c2.062-.867,3.376-3.07,4.676-4.774.129-.169-.158-.333-.285-.167-1.722,2.254-4.617,6.743-7.928,4.182-1.15-.889-2.1-3.041-.729-4.184.856-.712,1.711.27,2.26.887a16.342,16.342,0,0,1,1.6,2.133,16.819,16.819,0,0,1,2.222,5.478c.044.208.363.12.319-.088" transform="translate(17232.086 2936.312)" fill="#173449"/>
      <path id="Path_174" data-name="Path 174" d="M195.276,337.933a14.847,14.847,0,0,1,1.551,5.493q.474,3.069.85,6.152.715,5.865,1.07,11.765c.013.212.344.213.331,0q-.391-6.36-1.184-12.684-.367-2.895-.82-5.778a13.914,13.914,0,0,0-1.513-5.115.165.165,0,0,0-.285.167" transform="translate(17232.939 2935.804)" fill="#173449"/>
      <path id="Path_175" data-name="Path 175" d="M195.321,346.111q.375,4.835.751,9.67c.017.21.348.212.331,0q-.377-4.835-.751-9.67c-.017-.211-.348-.213-.331,0" transform="translate(17232.936 2935.282)" fill="#173449"/>
      <path id="Path_176" data-name="Path 176" d="M281.567,412.876l6.2,23.688-42.723.1s-.63-19.166,22.942-12.638l-3.833-11.989Z" transform="translate(17229.791 2931.103)" fill="#ffbf73"/>
      <path id="Path_177" data-name="Path 177" d="M244.829,436.86l-.007-.2c0-.072-.179-7.3,5.027-11.4,3.981-3.134,9.972-3.655,17.806-1.551l-3.807-11.91,17.867.859.038.147,6.27,23.949h-.269Zm14.3-14a14.18,14.18,0,0,0-9.02,2.726c-4.558,3.584-4.858,9.671-4.872,10.854l42.246-.1-6.095-23.281-16.96-.813,3.859,12.069-.372-.1a33.338,33.338,0,0,0-8.785-1.351" transform="translate(17229.805 2931.118)" fill="#173449"/>
      <rect id="Rectangle_40" data-name="Rectangle 40" width="41.236" height="0.841" transform="translate(17475.314 3363.488) rotate(-0.129)" fill="#173449"/>
      <path id="Path_178" data-name="Path 178" d="M273.406,428.877a14.421,14.421,0,0,0-3.572-4.122.72.72,0,0,0-.991,0,.708.708,0,0,0,0,.992,13.906,13.906,0,0,1,1.9,1.8c.141.16.276.324.409.49.012.017.1.134.035.043l.1.134c.06.082.12.162.178.245.261.364.5.742.727,1.129a.7.7,0,1,0,1.211-.707" transform="translate(17228.299 2930.312)" fill="#173449"/>
      <path id="Path_179" data-name="Path 179" d="M267.921,429.629a22.926,22.926,0,0,0-4.9-6.486c-.662-.612-1.656.378-.991.991a21.854,21.854,0,0,1,4.681,6.2.7.7,0,1,0,1.21-.707" transform="translate(17228.73 2930.413)" fill="#173449"/>
      <path id="Path_180" data-name="Path 180" d="M260.47,428.936a23.219,23.219,0,0,0-4.187-5.438c-.651-.626-1.644.364-.992.992a21.9,21.9,0,0,1,3.969,5.154c.438.789,1.65.082,1.21-.708" transform="translate(17229.156 2930.391)" fill="#173449"/>
      <path id="Path_181" data-name="Path 181" d="M267.917,419.576l16.681-.315-1.5-5.626-16.127,2.99Z" transform="translate(17228.404 2931.002)" fill="#173449"/>
      <path id="Path_182" data-name="Path 182" d="M265.109,255.945q-6.755,33.918-13.51,67.835a20.449,20.449,0,0,1,6.185-4.632,9.494,9.494,0,0,1-3.1,9.678,6.157,6.157,0,0,1,5.123-1.362c1.389.467.845,2.623-.209,3.641s-2.507,2.158-2.141,3.578a3.406,3.406,0,0,0,.8,1.293,277.183,277.183,0,0,1,42.152,67.037c-9.727,7.182-24.714,8.159-36.8,8.089-6.35-21.843-14.586-39.447-23.859-60.219-2.723-6.1-5.471-12.264-6.71-18.826-1.386-7.348-1.478-18.287-.862-25.739,1.576-19.056-.1-36.284,2.163-55.27,9.451-1.708,21.171,5.267,30.768,4.9" transform="translate(17230.627 2941.3)" fill="#006a7c"/>
      <path id="Path_183" data-name="Path 183" d="M254.112,259.462a23.977,23.977,0,0,0,7.482,17.316c.155.146.389-.087.234-.233a23.639,23.639,0,0,1-7.385-17.083.165.165,0,0,0-.331,0" transform="translate(17229.219 2940.76)" fill="#173449"/>
      <path id="Path_184" data-name="Path 184" d="M257.948,273.019a129.447,129.447,0,0,0-10.861,35.844c-.884,5.921-1.808,12.265-.986,18.236.315,2.287.849,5.178,2.731,6.753,1.189,1,3.247,1.3,4.412.083a2.258,2.258,0,0,0-.432-3.334c-1.47-.965-2.707.678-2.926,2.019-.819,4.988,4.611,8.885,7.657,11.927a138.838,138.838,0,0,1,21.15,27.683,222.551,222.551,0,0,1,16.777,36.03c.073.2.393.112.319-.088-6.887-18.561-15.582-36.677-27.832-52.335a126.21,126.21,0,0,0-10.023-11.369c-1.7-1.706-3.547-3.292-5.116-5.125-1.613-1.887-3.4-4.756-2.435-7.342.414-1.105,1.572-1.758,2.533-.884a2.014,2.014,0,0,1,.5,1.911c-.527,1.712-2.883,1.586-4.081.793-2.344-1.551-2.809-5.443-3.043-7.98-.512-5.565.3-11.389,1.118-16.89a129.1,129.1,0,0,1,10.828-35.765c.089-.191-.195-.359-.286-.167" transform="translate(17229.744 2939.899)" fill="#173449"/>
      <path id="Path_185" data-name="Path 185" d="M241.015,352.113a62.046,62.046,0,0,1,16.132,14.451c.131.167.363-.068.234-.234a62.314,62.314,0,0,0-16.2-14.5c-.182-.112-.348.173-.167.285" transform="translate(17230.051 2934.912)" fill="#173449"/>
      <path id="Path_186" data-name="Path 186" d="M245.781,358.532a48.945,48.945,0,0,1,7.6,6.722c.144.156.378-.078.233-.234a49.288,49.288,0,0,0-7.67-6.773c-.173-.124-.338.163-.167.285" transform="translate(17229.75 2934.506)" fill="#173449"/>
      <path id="Path_187" data-name="Path 187" d="M232.813,297.81a174.609,174.609,0,0,1,1.846-22.387c.727-5.81.5-12.587-4.462-16.573-.164-.131-.4.1-.234.234,5.516,4.431,5,12.044,4.094,18.324a139.283,139.283,0,0,0-1.575,20.4.165.165,0,0,0,.331,0" transform="translate(17230.748 2940.792)" fill="#173449"/>
      <path id="Path_188" data-name="Path 188" d="M231.555,267.407a25.1,25.1,0,0,0-3.08-2.777c-.169-.128-.333.158-.167.286a24.654,24.654,0,0,1,3.014,2.724c.145.155.378-.079.233-.233" transform="translate(17230.854 2940.426)" fill="#173449"/>
      <path id="Path_189" data-name="Path 189" d="M252.923,146.5c.03.242-.369.225-.566.081a3.47,3.47,0,0,1,1.453-6.218c-.024.3-.511.1-.647-.172a4.019,4.019,0,0,1,4.932-5.578,6.007,6.007,0,0,1,.914-3.632,3.019,3.019,0,0,1,1.513-1.324,2.607,2.607,0,0,1,3.07,2.043,5.219,5.219,0,0,1-.986,3.914,3.93,3.93,0,0,1,5.065.713,3.772,3.772,0,0,1-.287,4.989,4.992,4.992,0,0,1,4.063,8.31,3.823,3.823,0,0,1-.083,7.209,4.092,4.092,0,0,1-4.783,5.863,1.743,1.743,0,0,0-.837-.138c-.656.135-.773.994-1.024,1.616-.677,1.672-3.14,1.972-4.617.936a6.808,6.808,0,0,1-2.4-4.687,29.458,29.458,0,0,0-.874-5.332,31.221,31.221,0,0,0-2.358-4.372c-.792-1.459-1.994-2.624-1.548-4.221" transform="translate(17229.418 2948.964)" fill="#173449"/>
      <path id="Path_190" data-name="Path 190" d="M248.55,174.232c1.436-3.541,2.01-4.58,3.293-8.03-2.526-.446-5.487-1.293-7.2-3.412-1.183-1.465.147-3.81.738-5.6a34.974,34.974,0,0,1,6.082-11.093,5.505,5.505,0,0,1,2.064-1.763,4.237,4.237,0,0,1,3.222.214,8.021,8.021,0,0,1,4.246,4.7,10.447,10.447,0,0,1,.055,6.41,2.511,2.511,0,0,1,3.561-.233,4.339,4.339,0,0,1,1.086,2.615,5.6,5.6,0,0,1,.02,1.683,3.566,3.566,0,0,1-6.439,1.448c-.591,4.819-1.32,10.612-1.911,15.43l8.718,9.815s-21.263,13.628-30.3,8.727c0,0-3.037-12.919,3.8-18.964Z" transform="translate(17230.418 2948.045)" fill="#dd998e"/>
      <path id="Path_191" data-name="Path 191" d="M263.995,157.875a2.124,2.124,0,0,1-.305,3.606c-.186.1-.022.381.166.283a2.45,2.45,0,0,0,.371-4.12c-.164-.128-.4.1-.231.231" transform="translate(17228.617 2947.191)" fill="#173449"/>
      <path id="Path_192" data-name="Path 192" d="M264.75,159.806a1.375,1.375,0,0,0-1.541.688.164.164,0,1,0,.283.166,1.048,1.048,0,0,1,1.171-.538.164.164,0,0,0,.087-.316" transform="translate(17228.645 2947.054)" fill="#173449"/>
      <path id="Path_193" data-name="Path 193" d="M252.744,178.905a2.455,2.455,0,0,1,1.544-.387.165.165,0,0,0,.164-.164.167.167,0,0,0-.164-.164,2.748,2.748,0,0,0-1.71.432c-.176.114-.012.4.166.283" transform="translate(17229.32 2945.89)" fill="#173449"/>
      <path id="Path_194" data-name="Path 194" d="M251.216,178.231a3.137,3.137,0,0,0-.324-1.633.165.165,0,0,0-.224-.059.167.167,0,0,0-.059.224,2.81,2.81,0,0,1,.279,1.468.164.164,0,1,0,.328,0" transform="translate(17229.441 2945.995)" fill="#173449"/>
      <path id="Path_195" data-name="Path 195" d="M256.781,154.306a2.7,2.7,0,0,1-.924,1.1,1.749,1.749,0,0,1-1.355.353.952.952,0,0,1-.615-1.038,10.162,10.162,0,0,1,.218-1.573c.034-.206-.282-.294-.316-.087-.081.482-.185.968-.222,1.456a1.715,1.715,0,0,0,.252,1.16c.565.756,1.669.41,2.3-.058a3.011,3.011,0,0,0,.943-1.148c.088-.19-.194-.357-.283-.166" transform="translate(17229.252 2947.486)" fill="#173449"/>
      <path id="Path_196" data-name="Path 196" d="M251.347,151.905c-.49.561-1.193,1.311-2.019.962a.752.752,0,0,1-.421-.938,4.826,4.826,0,0,1,.261-.711l.332-.8c.081-.195-.236-.279-.316-.087-.185.445-.4.887-.546,1.345a1.222,1.222,0,0,0,.111,1.154,1.431,1.431,0,0,0,1.825.216,4.091,4.091,0,0,0,1-.911c.139-.158-.093-.391-.231-.231" transform="translate(17229.57 2947.658)" fill="#173449"/>
      <path id="Path_197" data-name="Path 197" d="M258.962,153.043a6.607,6.607,0,0,0-1.916-2.717.272.272,0,0,0-.377,0,.267.267,0,0,0,0,.377,6.081,6.081,0,0,1,1.778,2.482.274.274,0,0,0,.328.186.269.269,0,0,0,.186-.328" transform="translate(17229.061 2947.656)" fill="#173449"/>
      <path id="Path_198" data-name="Path 198" d="M253.325,148.634a7.965,7.965,0,0,0-2.08-.641.275.275,0,0,0-.328.185.27.27,0,0,0,.186.329,7.489,7.489,0,0,1,1.952.586.273.273,0,0,0,.364-.1.269.269,0,0,0-.1-.364" transform="translate(17229.42 2947.799)" fill="#173449"/>
      <path id="Path_199" data-name="Path 199" d="M258.162,164.435a8.3,8.3,0,0,1-1.084,1.572,3.544,3.544,0,0,1-1.406,1.1,5.445,5.445,0,0,1-1.881.146,17.817,17.817,0,0,1-2.082-.175c-.207-.029-.3.287-.087.317a18.687,18.687,0,0,0,2.17.186,5.379,5.379,0,0,0,2.079-.2,3.878,3.878,0,0,0,1.4-1.1,8.647,8.647,0,0,0,1.174-1.682c.1-.185-.183-.351-.283-.165" transform="translate(17229.383 2946.764)" fill="#173449"/>
      <path id="Path_200" data-name="Path 200" d="M253.74,157.14c-.178.5.3,1.13,1.076,1.4s1.543.092,1.721-.409-.3-1.13-1.076-1.4-1.543-.092-1.721.409" transform="translate(17229.244 2947.254)" fill="#f47471"/>
      <path id="Path_201" data-name="Path 201" d="M247.581,154.441a.888.888,0,1,0,1.155-.611.926.926,0,0,0-1.155.611" transform="translate(17229.635 2947.433)" fill="#f47471"/>
      <path id="Path_202" data-name="Path 202" d="M250.864,155.251a1.245,1.245,0,0,0-1.72-.276.831.831,0,0,0-.285.8.885.885,0,0,0,.473.57,1.872,1.872,0,0,0,.89.188.164.164,0,0,0,0-.328c-.347.007-.854-.07-1.016-.421a.471.471,0,0,1,.1-.51.68.68,0,0,1,.6-.216,1.241,1.241,0,0,1,.729.423c.142.156.374-.076.231-.231" transform="translate(17229.551 2947.373)" fill="#173449"/>
      <path id="Path_203" data-name="Path 203" d="M249.855,157.933c-.061-.08-.116-.162-.172-.245a1.528,1.528,0,0,0-.525-.543c-.585-.3-1.2.42-1.237.954a2.2,2.2,0,0,0,.213,1.005,3.392,3.392,0,0,0,1.439,1.725,2.326,2.326,0,0,0,1.961.106,2.158,2.158,0,0,0,1.268-1.484,1.452,1.452,0,0,0-.186-1.165.92.92,0,0,0-1.07-.34c-.192.085-.34.246-.527.34a.869.869,0,0,1-.829-.033,1.219,1.219,0,0,1-.334-.319" transform="translate(17229.609 2947.225)" fill="#fff"/>
      <path id="Path_204" data-name="Path 204" d="M249.373,162.266a2.508,2.508,0,0,0,1.253.585,1.067,1.067,0,0,0,1.02-.5c.1-.187-.185-.354-.286-.167a.762.762,0,0,1-.791.333,2.428,2.428,0,0,1-1.03-.534.166.166,0,0,0-.226.06.169.169,0,0,0,.059.226" transform="translate(17229.523 2946.916)" fill="#173449"/>
      <path id="Path_205" data-name="Path 205" d="M275.85,221.853c.28-7.713.423-15.42-1.5-22.848a24.643,24.643,0,0,0-4.056-8.919c-3.059-3.975-7.65-6.414-12.1-8.733a24.072,24.072,0,0,1-7.8,12.367c-2.336,1.955-5.4,3.511-8.353,2.755-3.678-.942-5.663-5.248-5.254-9.023s2.6-7.094,4.808-10.18c-.356.5-4.015.758-4.761.965a34.875,34.875,0,0,0-4.985,1.8,35.931,35.931,0,0,0-8.5,5.451c-5.193,4.393-8.6,10.563-10.514,17.027-2.159,7.3-2.55,15-2.686,22.611-.093,5.22-.072,10.44-.052,15.66,0,.463,43.384,16.343,65.537,15.464.544-8.344-.147-16.716-.063-25.077.031-3.094.166-6.206.279-9.317" transform="translate(17232.002 2945.948)" fill="#ba74ad"/>
      <path id="Path_206" data-name="Path 206" d="M218.262,168.478a90.876,90.876,0,0,1-22.686-9.363,4.441,4.441,0,0,1-1.431-1.133,4.532,4.532,0,0,1-.647-2c-2-12.753-2.117-29.764-2.186-42.908-.009-1.844,2.535-2.636,3.553-4.172a8.53,8.53,0,0,0,1.007-2.579,7.307,7.307,0,0,0,.35-2.813,2.613,2.613,0,0,0-1.593-2.187,5.914,5.914,0,0,0-.467-3.757,1.785,1.785,0,0,0-2.719-.331,3.088,3.088,0,0,0-2.3-2.375,2.007,2.007,0,0,0-2.079,1.57,2.638,2.638,0,0,0-2.861-.223,2,2,0,0,0-.646,2.38c-.23-.567-1.317-.382-1.845-.074a2.714,2.714,0,0,0-1.038,1.469,10.92,10.92,0,0,0-.683,4.351c.842,17.57-2.845,39.254-3.134,56.842-.044,2.677-.016,5.464,1.164,7.867a15.426,15.426,0,0,0,5.126,5.374c7.729,5.575,16.678,9.166,25.527,12.7,4.615-5.456,7.3-11.879,9.588-18.648" transform="translate(17234.104 2951.159)" fill="#dd998e"/>
      <path id="Path_207" data-name="Path 207" d="M241.069,176.784c-8.582-1.365-17.541-3.331-25.3-7.236-5.308,7.58-10.777,14.657-13.931,23.356,2.177,1.192,4.588,2.776,6.728,4.033,2.672,1.571,2.7,8.022,2.162,11.074s2.356,6.81,4.6,8.944c.824.783-.945-4.039.127-4.418a4.645,4.645,0,0,0,2.092-1.979c7.881-11.668,12.492-25.025,23.523-33.774" transform="translate(17232.523 2946.436)" fill="#ba74ad"/>
      <path id="Path_208" data-name="Path 208" d="M195.387,101.755a9.044,9.044,0,0,0-6.2-.64c-1.818.465-3.911,1.6-4.52,3.505a2.631,2.631,0,0,0,2.216,3.609,2.714,2.714,0,0,0,2.1-.982c.339-.326,1.281-.7,1.031.265a1.683,1.683,0,0,1-.437.661,11.408,11.408,0,0,1-1.29,1.023,3.046,3.046,0,0,0-.3,4.7c.157.142.393-.091.233-.233a2.718,2.718,0,0,1-.834-2.568,3.613,3.613,0,0,1,1.725-2.1,2.821,2.821,0,0,0,1.29-1.618.716.716,0,0,0-.9-.839,1.593,1.593,0,0,0-.807.537,2.379,2.379,0,0,1-1.238.777,2.117,2.117,0,0,1-2.48-1.385c-.741-2.239,1.474-3.994,3.3-4.713a8.689,8.689,0,0,1,6.943.285c.19.093.358-.192.167-.286" transform="translate(17233.617 2950.781)" fill="#173449"/>
      <path id="Path_209" data-name="Path 209" d="M185.478,107.309a4.041,4.041,0,0,0,1.608-1.7,2.172,2.172,0,0,0,.032-1.283c-.122-.526-.274-1.045-.411-1.568a.166.166,0,0,0-.319.088q.176.66.35,1.321a2.167,2.167,0,0,1,.051,1.3,3.6,3.6,0,0,1-1.477,1.563c-.173.122-.007.407.167.286" transform="translate(17233.572 2950.667)" fill="#173449"/>
      <path id="Path_210" data-name="Path 210" d="M195.74,101.546c.088-1.383.42-3.193-.693-4.273a1.828,1.828,0,0,0-1.592-.55,1.917,1.917,0,0,0-1.308,1.209,5.03,5.03,0,0,0-.3,1.285c-.063.472-.122.945-.183,1.417-.027.21.3.208.331,0,.061-.479.119-.957.185-1.435a4.2,4.2,0,0,1,.313-1.241,1.373,1.373,0,0,1,1.723-.843c1.709.654,1.282,3.021,1.193,4.43-.013.213.318.212.331,0" transform="translate(17233.166 2951.042)" fill="#173449"/>
      <path id="Path_211" data-name="Path 211" d="M192.406,97.275a2.843,2.843,0,0,0-3.4-2.483c-1.875.537-1.765,2.867-1.659,4.415a7.824,7.824,0,0,0,.282,1.7c.043.142.079.4.251.452a.2.2,0,0,0,.261-.154.166.166,0,0,0-.042-.16l-.02-.018c-.156-.145-.39.088-.233.233l.019.018-.042-.16.037-.052h.167c-.063-.042-.1-.334-.125-.409-.028-.108-.054-.217-.077-.327a7.331,7.331,0,0,1-.125-.844c-.045-.48-.058-.962-.06-1.444a3.388,3.388,0,0,1,.682-2.49,2.067,2.067,0,0,1,2.372-.276,2.9,2.9,0,0,1,1.4,2.085c.037.209.356.12.319-.088" transform="translate(17233.443 2951.169)" fill="#173449"/>
      <path id="Path_212" data-name="Path 212" d="M187.534,96.282c-.422-.822-1.436-.573-2.143-.357a2.143,2.143,0,0,0-1.635,1.519,5.006,5.006,0,0,0,.374,2.786,11.192,11.192,0,0,0,1.319,2.6c.119.174.406.009.286-.168a10.927,10.927,0,0,1-1.094-2.016,7.55,7.55,0,0,1-.627-2.348,1.816,1.816,0,0,1,.98-1.882c.6-.274,1.859-.743,2.255.031.1.189.383.022.286-.167" transform="translate(17233.672 2951.104)" fill="#173449"/>
      <path id="Path_213" data-name="Path 213" d="M183.738,98.372a2.374,2.374,0,0,0-2.2.541,2.725,2.725,0,0,0-.827,2.266,4.272,4.272,0,0,0,1.181,2.37,3.17,3.17,0,0,0,2.156,1.282c.213.01.212-.32,0-.33a2.8,2.8,0,0,1-1.86-1.116,4.114,4.114,0,0,1-1.132-2.088,2.443,2.443,0,0,1,.62-2.06,2.04,2.04,0,0,1,1.977-.547.165.165,0,0,0,.088-.319" transform="translate(17233.859 2950.941)" fill="#173449"/>
      <path id="Path_214" data-name="Path 214" d="M182.256,100.717c.014-.022.029-.043.045-.064l-.025.034a1.1,1.1,0,0,1,.2-.2l-.034.025a1.1,1.1,0,0,1,.242-.141l-.039.017.007,0a.182.182,0,0,0,.1-.076.168.168,0,0,0,.016-.127.16.16,0,0,0-.076-.1.155.155,0,0,0-.126-.017,1.16,1.16,0,0,0-.347.206,1.2,1.2,0,0,0-.244.275.166.166,0,0,0,.059.226.169.169,0,0,0,.226-.059" transform="translate(17233.781 2950.83)" fill="#173449"/>
      <path id="Path_215" data-name="Path 215" d="M182.092,100.024l.414-.345a.166.166,0,0,0,0-.233.166.166,0,0,0-.117-.049.187.187,0,0,0-.117.049l-.414.345a.164.164,0,0,0-.049.116.168.168,0,0,0,.049.117.166.166,0,0,0,.117.049.2.2,0,0,0,.117-.049" transform="translate(17233.789 2950.872)" fill="#173449"/>
      <path id="Path_216" data-name="Path 216" d="M185.376,98.147l.414-.208a.167.167,0,0,0,.076-.1.172.172,0,0,0-.017-.127.169.169,0,0,0-.226-.06l-.414.208a.171.171,0,0,0-.076.1.165.165,0,0,0,.243.186" transform="translate(17233.58 2950.983)" fill="#173449"/>
      <path id="Path_217" data-name="Path 217" d="M185.481,97.5l.207-.069a.167.167,0,0,0,.1-.076.12.12,0,0,0,.02-.061.124.124,0,0,0,0-.067.166.166,0,0,0-.2-.115l-.207.069a.173.173,0,0,0-.1.076.121.121,0,0,0-.02.062.131.131,0,0,0,0,.066.167.167,0,0,0,.076.1.164.164,0,0,0,.127.017" transform="translate(17233.57 2951.016)" fill="#173449"/>
      <path id="Path_218" data-name="Path 218" d="M188.795,97.123,189.42,97a.165.165,0,0,0,.115-.2.17.17,0,0,0-.2-.116l-.625.121a.166.166,0,0,0-.115.2.169.169,0,0,0,.2.115" transform="translate(17233.361 2951.043)" fill="#173449"/>
      <path id="Path_219" data-name="Path 219" d="M189.151,96.4l.345.069a.177.177,0,0,0,.127-.017.163.163,0,0,0,.076-.1.167.167,0,0,0-.016-.127.165.165,0,0,0-.1-.076l-.345-.069a.177.177,0,0,0-.127.017.163.163,0,0,0-.076.1.168.168,0,0,0,.017.127.163.163,0,0,0,.1.076" transform="translate(17233.332 2951.081)" fill="#173449"/>
      <path id="Path_220" data-name="Path 220" d="M193.02,98l.276.207a.12.12,0,0,0,.061.02.134.134,0,0,0,.067,0,.166.166,0,0,0,.115-.2l-.017-.039a.162.162,0,0,0-.059-.059l-.276-.208a.129.129,0,0,0-.062-.019.112.112,0,0,0-.066,0,.167.167,0,0,0-.1.076.164.164,0,0,0-.017.127l.017.039a.162.162,0,0,0,.059.059" transform="translate(17233.086 2950.979)" fill="#173449"/>
      <path id="Path_221" data-name="Path 221" d="M193.764,98.031a.165.165,0,0,0,0-.331.165.165,0,0,0,0,.331" transform="translate(17233.043 2950.979)" fill="#173449"/>
      <path id="Path_222" data-name="Path 222" d="M183.8,113.9a3.924,3.924,0,0,0,1.274-3.626c-.037-.209-.355-.121-.318.087a3.593,3.593,0,0,1-1.189,3.306c-.161.139.073.372.233.233" transform="translate(17233.682 2950.191)" fill="#173449"/>
      <path id="Path_223" data-name="Path 223" d="M187.681,166.057a12.408,12.408,0,0,1,4.082-2.073.165.165,0,0,0-.087-.318,12.666,12.666,0,0,0-4.163,2.106c-.166.128,0,.415.168.286" transform="translate(17233.434 2946.808)" fill="#173449"/>
      <path id="Path_224" data-name="Path 224" d="M191.345,165.658l1.518-1.105a.17.17,0,0,0,.06-.226.168.168,0,0,0-.227-.06l-1.518,1.105a.17.17,0,0,0-.059.227.166.166,0,0,0,.226.059" transform="translate(17233.203 2946.771)" fill="#173449"/>
      <path id="Path_225" data-name="Path 225" d="M286.355,202.955A288.3,288.3,0,0,0,304.534,230.3c4.174-7.627,9.519-14.851,11.045-23.411a12.468,12.468,0,0,0,.2-5.074c-.185-.765-.512-1.489-.726-2.245a5.614,5.614,0,0,1,.22-3.985,3.576,3.576,0,0,1,3.257-2.058c.345.02.859-.323.551-.478a4.019,4.019,0,0,1,1.927-3.1,3.512,3.512,0,0,1,2.689,1.176c.731-1.462,3.48-.765,3.427.868,1.572-.934,3.852,1.021,3.168,2.717.562-.439,1.454.032,1.694.7a3.413,3.413,0,0,1-.17,2.1A519.506,519.506,0,0,1,314.2,246.967a6.873,6.873,0,0,1-4.245,3.934,15.762,15.762,0,0,1-6.037.37c-7.642-.585-30.561-28.455-33.9-36.536-.757-9.472,14.976-2.376,16.334-11.78" transform="translate(17228.213 2945.146)" fill="#dd998e"/>
      <path id="Path_226" data-name="Path 226" d="M267.584,224.931a52.771,52.771,0,0,0,22.576-18.4c-7.434-8.933-15.188-18.122-25.619-23.247-3.338,13.227-1.98,28.968,3.043,41.652" transform="translate(17228.674 2945.568)" fill="#ba74ad"/>
      <path id="Path_227" data-name="Path 227" d="M321.913,193.978a8.14,8.14,0,0,1,5.2,1.312c1.626,1.1,3.269,3.428,2.347,5.456a2.117,2.117,0,0,1-2.57,1.3,1.746,1.746,0,0,1-1.045-1.084,3.051,3.051,0,0,1,.1-1.3c.068-.514-.112-1.106-.745-1.056A1.755,1.755,0,0,0,323.869,200c-.237.952.3,1.637.688,2.452a1.946,1.946,0,0,1-1.233,2.757.165.165,0,0,0,.088.319,2.291,2.291,0,0,0,1.576-1.462,2.81,2.81,0,0,0-.486-2.4,2.036,2.036,0,0,1-.244-1.787,1.631,1.631,0,0,1,.513-.721c.277-.214.694-.445.869.226a1.187,1.187,0,0,1-.061.467,2.014,2.014,0,0,0,.53,2.106c1.365,1.224,3.281.177,3.772-1.383.6-1.905-.608-3.962-2.045-5.143a8.344,8.344,0,0,0-5.924-1.774c-.211.017-.213.348,0,.331" transform="translate(17224.941 2944.914)" fill="#173449"/>
      <path id="Path_228" data-name="Path 228" d="M330.21,198.618a1.9,1.9,0,0,0-1.616,1.249,2.609,2.609,0,0,0,.385,2.34c.118.175.4.01.285-.167a2.33,2.33,0,0,1-.383-2,1.569,1.569,0,0,1,1.329-1.1c.211-.013.213-.344,0-.331" transform="translate(17224.518 2944.598)" fill="#173449"/>
      <path id="Path_229" data-name="Path 229" d="M322.435,193.343a4.749,4.749,0,0,1,.873-2.276,1.95,1.95,0,0,1,1.967-1.011,3.6,3.6,0,0,1,1.126.562.861.861,0,0,1,.4.467,1.858,1.858,0,0,1,.009.615,8.476,8.476,0,0,1-.63,2.57c-.082.2.238.282.319.088a8.812,8.812,0,0,0,.606-2.31,2.569,2.569,0,0,0-.009-1.127,1.442,1.442,0,0,0-.662-.674,2.448,2.448,0,0,0-2-.5,3,3,0,0,0-1.5,1.281,5.111,5.111,0,0,0-.827,2.312c-.022.211.308.21.331,0" transform="translate(17224.918 2945.163)" fill="#173449"/>
      <path id="Path_230" data-name="Path 230" d="M327.494,191c.167-.549,1.207-.474,1.645-.446a1.389,1.389,0,0,1,1.4,1.3,4.864,4.864,0,0,1-.5,2.172,10.748,10.748,0,0,1-1.059,1.98c-.119.178.168.344.286.168a11.125,11.125,0,0,0,1.233-2.433,3.47,3.47,0,0,0,.2-2.547,1.849,1.849,0,0,0-1.889-.98c-.576.009-1.438.024-1.641.7a.165.165,0,0,0,.318.087" transform="translate(17224.598 2945.129)" fill="#173449"/>
      <path id="Path_231" data-name="Path 231" d="M331.091,192.091a2.263,2.263,0,0,1,2.437.493A2.348,2.348,0,0,1,334.01,195a12.063,12.063,0,0,1-1.187,2.48c-.471.778-1.255,1.6-2.257,1.29-.2-.063-.29.256-.088.319a2.256,2.256,0,0,0,2.447-1.157,11.531,11.531,0,0,0,.824-1.48,8.567,8.567,0,0,0,.647-1.6,2.63,2.63,0,0,0-.708-2.577,2.59,2.59,0,0,0-2.686-.5c-.2.075-.111.394.088.318" transform="translate(17224.396 2945.042)" fill="#173449"/>
      <path id="Path_232" data-name="Path 232" d="M330.2,197.832a.958.958,0,0,1,1.076-.393,2.15,2.15,0,0,1,1.14.922c.122.171.408.007.285-.167a2.43,2.43,0,0,0-1.4-1.089,1.283,1.283,0,0,0-1.385.56c-.1.186.184.353.286.166" transform="translate(17224.426 2944.695)" fill="#173449"/>
      <path id="Path_233" data-name="Path 233" d="M334.52,195.057a.747.747,0,0,1,.97.351,2.219,2.219,0,0,1,.281,1.092,5.623,5.623,0,0,1-.559,2.21,2.242,2.242,0,0,1-1.391,1.508,1.191,1.191,0,0,1-1.428-1.31c.019-.212-.311-.21-.331,0a1.521,1.521,0,0,0,.962,1.569,1.679,1.679,0,0,0,1.8-.487,5.23,5.23,0,0,0,1.01-2.015,3.605,3.605,0,0,0,.122-2.345c-.225-.658-.893-1.245-1.6-.859-.186.1-.021.387.167.285" transform="translate(17224.289 2944.849)" fill="#173449"/>
      <path id="Path_234" data-name="Path 234" d="M333.1,198.44a1.621,1.621,0,0,1,.8,1.745c-.047.207.272.3.318.088a1.956,1.956,0,0,0-.952-2.118c-.187-.1-.354.184-.167.285" transform="translate(17224.229 2944.628)" fill="#173449"/>
      <path id="Path_235" data-name="Path 235" d="M332.547,193.671l.345.069a.177.177,0,0,0,.127-.017.165.165,0,0,0-.039-.3l-.345-.069a.172.172,0,0,0-.127.017.163.163,0,0,0-.076.1.168.168,0,0,0,.017.127.163.163,0,0,0,.1.076" transform="translate(17224.266 2944.931)" fill="#173449"/>
      <path id="Path_236" data-name="Path 236" d="M332.738,193.088a.165.165,0,0,0,0-.331.165.165,0,0,0,0,.331" transform="translate(17224.256 2944.968)" fill="#173449"/>
      <path id="Path_237" data-name="Path 237" d="M335.011,196.356l.069.207a.167.167,0,0,0,.076.1.12.12,0,0,0,.061.02.115.115,0,0,0,.067,0,.166.166,0,0,0,.1-.076.167.167,0,0,0,.017-.127c-.023-.068-.046-.138-.069-.207a.173.173,0,0,0-.076-.1.121.121,0,0,0-.062-.02.131.131,0,0,0-.066,0,.166.166,0,0,0-.115.2" transform="translate(17224.104 2944.754)" fill="#173449"/>
      <path id="Path_238" data-name="Path 238" d="M335.391,196.4a.165.165,0,0,0,0-.331.165.165,0,0,0,0,.331" transform="translate(17224.088 2944.759)" fill="#173449"/>
      <path id="Path_239" data-name="Path 239" d="M329.014,192.078a.691.691,0,0,0,.528.191.181.181,0,0,0,.117-.049.166.166,0,0,0,0-.233.164.164,0,0,0-.117-.049.56.56,0,0,1-.119,0l.044.006a.549.549,0,0,1-.133-.037l.039.017a.545.545,0,0,1-.12-.069l.034.026-.04-.035a.169.169,0,0,0-.116-.049.166.166,0,0,0-.117.049.168.168,0,0,0,0,.233" transform="translate(17224.484 2945.029)" fill="#173449"/>
      <path id="Path_240" data-name="Path 240" d="M329.128,191.54a.165.165,0,0,0,0-.331.165.165,0,0,0,0,.331" transform="translate(17224.484 2945.066)" fill="#173449"/>
      <path id="Path_241" data-name="Path 241" d="M325.591,191.835h.069a.169.169,0,0,0,.116-.049.12.12,0,0,0,.035-.052.125.125,0,0,0,.014-.064.166.166,0,0,0-.049-.117.17.17,0,0,0-.116-.049h-.069a.172.172,0,0,0-.117.049.124.124,0,0,0-.034.053.122.122,0,0,0-.014.064.167.167,0,0,0,.048.116.172.172,0,0,0,.117.049" transform="translate(17224.709 2945.048)" fill="#173449"/>
      <path id="Path_242" data-name="Path 242" d="M325.131,190.79l.205.141a.132.132,0,0,0,.061.021.134.134,0,0,0,.067,0,.124.124,0,0,0,.056-.029.129.129,0,0,0,.042-.048.16.16,0,0,0,.017-.126l-.017-.04a.177.177,0,0,0-.059-.059l-.205-.141a.131.131,0,0,0-.062-.021.113.113,0,0,0-.066,0,.116.116,0,0,0-.056.029.117.117,0,0,0-.042.046.164.164,0,0,0-.017.127l.017.04a.153.153,0,0,0,.059.058" transform="translate(17224.732 2945.112)" fill="#173449"/>
      <path id="Path_243" data-name="Path 243" d="M328.977,204.5a3.7,3.7,0,0,0,.509,3.5c.126.167.414,0,.285-.167a3.4,3.4,0,0,1-.475-3.249c.076-.2-.244-.285-.318-.088" transform="translate(17224.498 2944.233)" fill="#173449"/>
      <path id="Path_244" data-name="Path 244" d="M308.271,229.874c-2.525,3.634-4.894,7.573-5.316,12.073-.02.211.311.21.331,0,.417-4.436,2.784-8.327,5.271-11.906.121-.175-.165-.34-.286-.167" transform="translate(17226.129 2942.626)" fill="#173449"/>
      <path id="Path_245" data-name="Path 245" d="M304.276,235.008a9.433,9.433,0,0,0-1.621,2.747c-.075.2.244.285.319.088a8.973,8.973,0,0,1,1.535-2.6c.137-.161-.1-.4-.233-.233" transform="translate(17226.148 2942.3)" fill="#173449"/>
      <path id="Path_246" data-name="Path 246" d="M266.71,186.682c-4.453,5.189-6.182,12.093-5.932,18.828a49.479,49.479,0,0,0,2.059,11.835c.544,1.885,1.128,3.777,1.84,5.606a8.256,8.256,0,0,0,2.072,3.339c2.736,2.375,5.943-.138,7.974-2.156a.165.165,0,0,0-.233-.234c-1.426,1.416-3.282,3.2-5.461,3.029-2.333-.179-3.448-2.5-4.165-4.416a62.341,62.341,0,0,1-3.316-12.428c-1.219-8.062-.068-16.8,5.4-23.17.138-.16-.095-.4-.233-.233" transform="translate(17228.797 2945.356)" fill="#173449"/>
      <path id="Path_247" data-name="Path 247" d="M267.123,227.327a63.754,63.754,0,0,0,23.043-18.478c.128-.166-.1-.4-.234-.233a63.534,63.534,0,0,1-22.975,18.425c-.192.091-.024.377.167.286" transform="translate(17228.41 2943.969)" fill="#173449"/>
      <path id="Path_248" data-name="Path 248" d="M234.752,178.345a52.051,52.051,0,0,0-18.92,19.564c-.1.186.183.353.286.167a51.7,51.7,0,0,1,18.8-19.445.166.166,0,0,0-.167-.286" transform="translate(17231.639 2945.881)" fill="#173449"/>
      <path id="Path_249" data-name="Path 249" d="M213.947,201.025a22.264,22.264,0,0,0-2.569,7.8c-.028.21.3.208.33,0a21.822,21.822,0,0,1,2.525-7.635c.1-.186-.183-.353-.286-.167" transform="translate(17231.92 2944.451)" fill="#173449"/>
      <path id="Path_250" data-name="Path 250" d="M273.47,232.35q-.518,13.064-2.048,26.056c-.025.211.305.209.33,0q1.529-12.985,2.049-26.056c.008-.213-.322-.213-.331,0" transform="translate(17228.123 2942.475)" fill="#173449"/>
      <path id="Path_268" data-name="Path 268" d="M468.466,209.8a12.306,12.306,0,0,0-5.39,8.079c-.282,1.556-.436,3.531.449,4.926a2.009,2.009,0,0,0,3.876-.985c.043-.52.21-.962.82-1.064a1.561,1.561,0,0,1,.965.389c.536.372,1.046.784,1.567,1.177.158.119.312-.148.155-.266-.7-.525-1.569-1.463-2.48-1.59a1.113,1.113,0,0,0-1.3,1.035,7.4,7.4,0,0,1-.147,1.312,1.523,1.523,0,0,1-1.542.932c-1.461-.1-2.086-1.711-2.2-2.945a11.846,11.846,0,0,1,5.39-10.733c.167-.107.012-.374-.155-.266" transform="translate(17216.02 2943.893)" fill="#173449"/>
      <path id="Path_269" data-name="Path 269" d="M464.561,224.13a2.418,2.418,0,0,0-1.14-4.156c-.194-.041-.276.256-.082.3a2.109,2.109,0,0,1,1,3.639c-.145.136.073.353.218.218" transform="translate(17215.996 2943.248)" fill="#173449"/>
      <path id="Path_270" data-name="Path 270" d="M466.052,229.951a7.279,7.279,0,0,0,.86-2.615c.011-.083-.079-.153-.155-.154a.157.157,0,0,0-.154.154,6.888,6.888,0,0,1-.818,2.459c-.1.173.17.329.266.156" transform="translate(17215.834 2942.792)" fill="#173449"/>
      <path id="Path_271" data-name="Path 271" d="M465.048,216.2l.361.109a.156.156,0,0,0,.19-.108.158.158,0,0,0-.108-.189l-.362-.109a.155.155,0,0,0-.189.108.158.158,0,0,0,.108.189" transform="translate(17215.887 2943.505)" fill="#173449"/>
      <path id="Path_272" data-name="Path 272" d="M465.673,215.586l.155.259a.158.158,0,0,0,.092.071.156.156,0,0,0,.19-.108.164.164,0,0,0-.016-.119c-.052-.086-.1-.172-.155-.259a.158.158,0,0,0-.092-.071.156.156,0,0,0-.119.016.158.158,0,0,0-.071.092.165.165,0,0,0,.016.119" transform="translate(17215.842 2943.54)" fill="#173449"/>
      <path id="Path_273" data-name="Path 273" d="M458.691,227.852a3.751,3.751,0,0,0,2.1,1.69,1.89,1.89,0,0,0,2.068-.778,2.828,2.828,0,0,0,.178-2.436,8.381,8.381,0,0,0-1.426-2.569,8.079,8.079,0,0,0-3.042-1.855c-.179-.082-.335.183-.156.267a8.376,8.376,0,0,1,2.858,1.666,7.255,7.255,0,0,1,.9,1.364,6.187,6.187,0,0,1,.667,1.565,1.983,1.983,0,0,1-1.071,2.465c-1.2.355-2.2-.649-2.817-1.535-.112-.162-.38-.007-.266.156" transform="translate(17216.305 2943.126)" fill="#173449"/>
      <path id="Path_274" data-name="Path 274" d="M462.892,218.941a8.348,8.348,0,0,0-1.418-1.761c-.445-.419-1.1-1.117-1.746-.693a4.427,4.427,0,0,0-1.4,5.274c.079.182.345.024.266-.156a4.173,4.173,0,0,1,.47-4.02,3.563,3.563,0,0,1,.739-.771.536.536,0,0,1,.689-.045,4.139,4.139,0,0,1,.508.394,8.063,8.063,0,0,1,1.63,1.933.154.154,0,0,0,.266-.156" transform="translate(17216.328 2943.476)" fill="#173449"/>
      <path id="Path_275" data-name="Path 275" d="M463.068,226.457c.472.3,1.047-.008,1.47-.256a1.478,1.478,0,0,0,.856-1.077c.017-.2-.291-.2-.308,0-.032.383-.4.634-.7.811-.318.185-.8.483-1.159.256-.169-.106-.323.161-.156.266" transform="translate(17216.01 2942.931)" fill="#173449"/>
      <path id="Path_276" data-name="Path 276" d="M460.671,216.1a3.765,3.765,0,0,1,1.119-3.293,1.566,1.566,0,0,1,1.631-.419,3,3,0,0,1,1.416,1.1c.122.156.339-.063.218-.217a3.193,3.193,0,0,0-1.623-1.2,1.852,1.852,0,0,0-1.762.423,4.589,4.589,0,0,0-1.092,1.654,3.318,3.318,0,0,0-.2,2.033c.045.194.343.111.3-.081" transform="translate(17216.182 2943.752)" fill="#173449"/>
      <path id="Path_277" data-name="Path 277" d="M462.13,215.159q.153-.416.305-.83a.157.157,0,0,0-.108-.19.159.159,0,0,0-.19.108c-.1.277-.2.554-.3.831a.155.155,0,0,0,.108.189.158.158,0,0,0,.189-.108" transform="translate(17216.084 2943.617)" fill="#173449"/>
      <path id="Path_278" data-name="Path 278" d="M462.351,213.97l.159-.413a.155.155,0,0,0-.227-.174.18.18,0,0,0-.071.093c-.052.138-.106.275-.158.412a.154.154,0,0,0,.108.19.157.157,0,0,0,.118-.016.174.174,0,0,0,.071-.092" transform="translate(17216.07 2943.666)" fill="#173449"/>
      <path id="Path_279" data-name="Path 279" d="M459.823,219.771a1.36,1.36,0,0,1,.006-.185c0-.018,0-.017,0,0l0-.024c0-.016.006-.033.009-.049s.012-.056.021-.084.017-.055.027-.082c0-.007.022-.057.007-.021a.475.475,0,0,1,.021-.045,1.146,1.146,0,0,1,.094-.16.155.155,0,0,0-.056-.211.158.158,0,0,0-.211.055,1.329,1.329,0,0,0-.229.8.154.154,0,0,0,.308,0" transform="translate(17216.23 2943.316)" fill="#173449"/>
      <path id="Path_280" data-name="Path 280" d="M459.433,218.886a.914.914,0,0,1,.062-.227l-.016.037a.848.848,0,0,1,.082-.152c.008-.012.016-.023.023-.035s.022-.022-.006.007l.013-.016a.8.8,0,0,1,.06-.066.157.157,0,0,0,0-.218.158.158,0,0,0-.218,0,1.039,1.039,0,0,0-.3.587.167.167,0,0,0,.015.118.154.154,0,0,0,.093.071.149.149,0,0,0,.118-.016.146.146,0,0,0,.071-.092" transform="translate(17216.254 2943.361)" fill="#173449"/>
      <path id="Path_281" data-name="Path 281" d="M462.653,225.681a1.673,1.673,0,0,0-.818.712,1.268,1.268,0,0,0-.232,1.116,6.812,6.812,0,0,0,.532,1.2c.064.132.149.362.341.29a.185.185,0,0,0,.032-.334c-.168-.106-.323.16-.155.267l.016.009-.076-.133.009-.036.093-.071c.089.038.109.024.059-.04l-.052-.108-.1-.215-.183-.377a1.9,1.9,0,0,1-.253-.823,1.148,1.148,0,0,1,.324-.7,1.2,1.2,0,0,1,.548-.464c.193-.047.111-.345-.082-.3" transform="translate(17216.102 2942.887)" fill="#173449"/>
      <path id="Path_282" data-name="Path 282" d="M459.317,225.043a.471.471,0,0,1-.025-.075c0-.012-.007-.025-.01-.038a.112.112,0,0,0-.007-.039c0,.025,0,.029,0,.011l0-.02c0-.009,0-.02,0-.03a.754.754,0,0,1,0-.08l0-.02c0-.017,0-.013,0,.011.006-.006.006-.031.007-.039a.6.6,0,0,1,.018-.067c0-.012.008-.024.013-.037s0-.012,0,.009l.008-.018a.642.642,0,0,1,.038-.07.155.155,0,0,0-.055-.211.157.157,0,0,0-.211.055.836.836,0,0,0-.069.74.166.166,0,0,0,.07.093.16.16,0,0,0,.119.015.156.156,0,0,0,.108-.19" transform="translate(17216.266 2942.973)" fill="#173449"/>
      <path id="Path_283" data-name="Path 283" d="M458.986,223.83q.184-.465.369-.929a.156.156,0,0,0-.108-.19.161.161,0,0,0-.19.108l-.368.929a.154.154,0,0,0,.108.19.158.158,0,0,0,.189-.108" transform="translate(17216.283 2943.075)" fill="#173449"/>
      <path id="Path_284" data-name="Path 284" d="M463.56,206.312a1.6,1.6,0,0,0,.849-.5.154.154,0,1,0-.218-.217,1.516,1.516,0,0,1-.157.153l-.024.021c-.013.009-.01.007,0,0l-.046.033c-.031.022-.063.042-.1.061s-.063.035-.095.051l-.052.023c-.021.01.023-.009,0,0l-.029.011a1.473,1.473,0,0,1-.216.065.154.154,0,0,0-.108.189.157.157,0,0,0,.189.108" transform="translate(17215.986 2944.159)" fill="#173449"/>
      <path id="Path_285" data-name="Path 285" d="M463.455,205.522l.417-.2a.154.154,0,0,0,.055-.211.151.151,0,0,0-.092-.071.17.17,0,0,0-.119.016l-.417.2a.152.152,0,0,0-.071.092.155.155,0,0,0,.016.119.159.159,0,0,0,.092.071.176.176,0,0,0,.119-.016" transform="translate(17215.996 2944.192)" fill="#173449"/>
      <path id="Path_286" data-name="Path 286" d="M493.368,253.661q5.276,5.945,10.851,11.613c.14.141.357-.077.218-.218q-5.573-5.666-10.851-11.612c-.132-.149-.349.069-.218.217" transform="translate(17214.092 2941.134)" fill="#173449"/>
      <path id="Path_287" data-name="Path 287" d="M500.551,260.342l2.4,1.426a.154.154,0,0,0,.155-.266l-2.4-1.426a.154.154,0,0,0-.155.266" transform="translate(17213.641 2940.713)" fill="#173449"/>
      <path id="Path_330" data-name="Path 330" d="M416.555,262.092c7.237,29.278,11.1,81.563,14.281,114.311a261.32,261.32,0,0,0,4.606,29.122c-5.651.528-9,1.751-14.651,2.279-6.468-20.815-14.336-43.114-14.971-64.637-.127-4.329-.018-8.681-.77-12.963-.886-5.052-2.95-9.89-4.673-14.783a114.209,114.209,0,0,1-4.9-57.412c.22-1.275.7-2.791,2.153-3.156a4.711,4.711,0,0,1,2.746.437c5.852,2.216,10.329,4.585,16.18,6.8" transform="translate(17220.383 2941.047)" fill="#41a392"/>
      <path id="Path_331" data-name="Path 331" d="M417.087,400.455l16.969-1.143,6.369,28.887h-15.2Z" transform="translate(17218.912 2931.908)" fill="#fce1be"/>
      <path id="Path_332" data-name="Path 332" d="M420.85,419.271h18.362l2.47,8.653s14.5-1.818,15.849,9.2H424.673Z" transform="translate(17218.676 2930.646)" fill="#41a392"/>
      <path id="Path_333" data-name="Path 333" d="M457.735,437.3H424.5l-3.905-18.242h18.749l.04.141,2.425,8.5c1.149-.111,7.971-.6,12.3,2.769a9.522,9.522,0,0,1,3.6,6.616Zm-32.921-.389h32.479a9.1,9.1,0,0,0-3.427-6.139c-4.59-3.576-12.1-2.681-12.176-2.673l-.166.021-2.475-8.673H421.075Z" transform="translate(17218.691 2930.659)" fill="#173449"/>
      <path id="Path_334" data-name="Path 334" d="M450.879,433.6a11.674,11.674,0,0,1,2.127-4.385.638.638,0,0,0,0-.873.621.621,0,0,0-.873,0,13.1,13.1,0,0,0-2.445,4.93.617.617,0,0,0,1.191.328" transform="translate(17216.854 2930.083)" fill="#173449"/>
      <path id="Path_335" data-name="Path 335" d="M448.389,432.013a9.944,9.944,0,0,1,.248-.987c.044-.142.091-.283.141-.422.028-.081.058-.159.089-.239.015-.039.031-.079.047-.118.029-.069.033-.079.011-.029a9.608,9.608,0,0,1,.956-1.723.62.62,0,0,0-.222-.845.632.632,0,0,0-.844.221,10.24,10.24,0,0,0-1.617,3.815.617.617,0,0,0,1.191.328" transform="translate(17217.01 2930.121)" fill="#173449"/>
      <path id="Path_336" data-name="Path 336" d="M445.724,430.818c.037-.145.08-.289.127-.432.023-.071.049-.141.075-.212l.037-.093c.023-.059.038-.093,0-.015a6.368,6.368,0,0,1,.413-.8q.111-.181.235-.354c.023-.035.049-.067.073-.1.037-.052.027-.037-.006.006.046-.059.094-.118.141-.175a6.248,6.248,0,0,1,.647-.66.621.621,0,0,0,0-.873.633.633,0,0,0-.874,0,6.822,6.822,0,0,0-2.065,3.379.618.618,0,1,0,1.191.329" transform="translate(17217.178 2930.161)" fill="#173449"/>
      <path id="Path_337" data-name="Path 337" d="M427.365,436.222h3.092a.617.617,0,0,0,0-1.235h-3.092a.617.617,0,1,0,0,1.235" transform="translate(17218.303 2929.652)" fill="#173449"/>
      <path id="Path_338" data-name="Path 338" d="M435.59,436.348a141.962,141.962,0,0,0,21.337.276c.786-.068.793-1.3,0-1.236a141.961,141.961,0,0,1-21.337-.275c-.793-.052-.791,1.184,0,1.235" transform="translate(17217.781 2929.644)" fill="#173449"/>
      <path id="Path_339" data-name="Path 339" d="M442.1,427.807c-.228.126-.459.242-.7.348-.016.007-.176.076-.043.02-.064.027-.128.053-.193.078-.112.045-.227.086-.341.126a8.976,8.976,0,0,1-1.458.368.619.619,0,0,0-.431.759.635.635,0,0,0,.76.432,9.5,9.5,0,0,0,3.025-1.063.624.624,0,0,0,.222-.845.631.631,0,0,0-.845-.221" transform="translate(17217.533 2930.111)" fill="#173449"/>
      <path id="Path_340" data-name="Path 340" d="M421.523,367.477a82.97,82.97,0,0,1,5.412-15.379c.083-.178-.183-.335-.267-.156a83.433,83.433,0,0,0-5.442,15.453c-.048.192.25.274.3.081" transform="translate(17218.652 2934.908)" fill="#173449"/>
      <path id="Path_341" data-name="Path 341" d="M422.833,357.637q.687-2.21,1.375-4.42c.059-.19-.239-.271-.3-.081q-.687,2.207-1.374,4.419c-.06.189.238.271.3.082" transform="translate(17218.568 2934.834)" fill="#173449"/>
      <path id="Path_342" data-name="Path 342" d="M383.356,244.628c-9.373,1.6-16.811,9.59-19.682,18.655s-1.77,18.976.986,28.077,7.094,17.626,10.8,26.381a4.55,4.55,0,0,1,.511,3c-.419,1.4-2.039,2.088-2.72,3.381-1.335,2.537,1.479,5.177,2.446,7.875.943,2.63.052,5.527-.836,8.176Q364.656,370.584,354.449,401c4.133,1.695,8.317,4.464,12.45,6.158,9.42-16.252,19.336-32.714,26.773-49.964a103.49,103.49,0,0,0,6.238-17.629c5.638-24.527-4.971-50.6.59-75.145a19.4,19.4,0,0,0,.8-5.6c-.477-6.763-11.259-15.335-17.941-14.194" transform="translate(17222.873 2941.695)" fill="#41a392"/>
      <path id="Path_343" data-name="Path 343" d="M358.607,397.244l15.749,6.139-11.425,20.171H349.014Z" transform="translate(17223.217 2932.039)" fill="#fce1be"/>
      <path id="Path_344" data-name="Path 344" d="M348.805,419.271h18.362l-4.445,8.653s14.5-1.818,15.849,9.2H345.713Z" transform="translate(17223.426 2930.646)" fill="#41a392"/>
      <path id="Path_345" data-name="Path 345" d="M378.775,437.3H345.466l.04-.227,3.119-18.015h18.845l-4.428,8.62c1.579-.127,7.973-.431,12.1,2.787a9.518,9.518,0,0,1,3.6,6.616Zm-32.846-.389h32.4a9.1,9.1,0,0,0-3.426-6.139c-4.59-3.576-12.1-2.681-12.176-2.673l-.366.046,4.469-8.7h-17.88Z" transform="translate(17223.441 2930.659)" fill="#173449"/>
      <path id="Path_346" data-name="Path 346" d="M371.66,433.6a11.673,11.673,0,0,1,2.127-4.385.638.638,0,0,0,0-.873.621.621,0,0,0-.873,0,13.1,13.1,0,0,0-2.445,4.93.617.617,0,0,0,1.191.328" transform="translate(17221.861 2930.083)" fill="#173449"/>
      <path id="Path_347" data-name="Path 347" d="M369.171,432.013a9.944,9.944,0,0,1,.248-.987c.044-.142.091-.283.141-.422.028-.081.058-.159.089-.239.015-.039.031-.079.047-.118.029-.069.032-.079.011-.029a9.547,9.547,0,0,1,.956-1.723.62.62,0,0,0-.222-.845.634.634,0,0,0-.845.221,10.253,10.253,0,0,0-1.616,3.815.617.617,0,0,0,1.191.328" transform="translate(17222.02 2930.121)" fill="#173449"/>
      <path id="Path_348" data-name="Path 348" d="M366.506,430.818q.056-.218.127-.432c.023-.071.049-.141.075-.212l.037-.093c.023-.059.038-.093,0-.015a6.372,6.372,0,0,1,.413-.8q.111-.181.235-.354l.073-.1c.037-.052.027-.037-.006.006.046-.059.094-.118.141-.175a6.248,6.248,0,0,1,.647-.66.621.621,0,0,0,0-.873.632.632,0,0,0-.873,0,6.818,6.818,0,0,0-2.066,3.379.618.618,0,0,0,1.191.329" transform="translate(17222.188 2930.161)" fill="#173449"/>
      <path id="Path_349" data-name="Path 349" d="M348.147,436.222h3.092a.617.617,0,0,0,0-1.235h-3.092a.617.617,0,0,0,0,1.235" transform="translate(17223.311 2929.652)" fill="#173449"/>
      <path id="Path_350" data-name="Path 350" d="M356.371,436.348a141.961,141.961,0,0,0,21.337.276c.786-.068.793-1.3,0-1.236a141.961,141.961,0,0,1-21.337-.275c-.793-.052-.791,1.184,0,1.235" transform="translate(17222.789 2929.644)" fill="#173449"/>
      <path id="Path_351" data-name="Path 351" d="M362.885,427.807c-.228.126-.459.242-.7.348-.016.007-.176.076-.043.02-.064.027-.128.053-.193.078-.112.045-.226.086-.341.126a8.953,8.953,0,0,1-1.458.368.619.619,0,0,0-.431.759.635.635,0,0,0,.76.432,9.5,9.5,0,0,0,3.025-1.063.624.624,0,0,0,.222-.845.631.631,0,0,0-.845-.221" transform="translate(17222.541 2930.111)" fill="#173449"/>
      <path id="Path_352" data-name="Path 352" d="M410.478,272.351c-9.131,3.187-7.58,15.295-7.3,22.809q.617,16.582,1.235,33.164c.007.2.316.2.308,0l-1.138-30.573c-.177-4.751-.721-9.67-.175-14.409.512-4.45,2.643-9.12,7.153-10.7.185-.065.106-.363-.082-.3" transform="translate(17219.809 2939.936)" fill="#173449"/>
      <path id="Path_353" data-name="Path 353" d="M406.025,281.389a9.6,9.6,0,0,1,2.789-3.523c.156-.122-.064-.339-.218-.218a9.783,9.783,0,0,0-2.837,3.586c-.082.179.183.335.266.156" transform="translate(17219.631 2939.603)" fill="#173449"/>
      <path id="Path_354" data-name="Path 354" d="M387.216,254.429a18.043,18.043,0,0,1-7.878,10.831,17.655,17.655,0,0,1-6.679,2.428,18.066,18.066,0,0,1-3.966.149,17.289,17.289,0,0,1-2.044-.268q-.375-.072-.748-.161c-.14-.033-2.152-.57-1.507-.95a.154.154,0,0,0-.155-.266c-.5.292-.17.817.216,1.085.921.637,2.576.705,3.667.819a17.978,17.978,0,0,0,19.392-13.585.154.154,0,0,0-.3-.081" transform="translate(17222.27 2941.076)" fill="#173449"/>
      <path id="Path_355" data-name="Path 355" d="M368.277,269.145a102.906,102.906,0,0,0,4.874,25.905,110.563,110.563,0,0,0,4.763,11.982c1.853,4.021,3.823,8.067,4.747,12.425a16.92,16.92,0,0,1,.339,6.771,3.845,3.845,0,0,1-1.359,2.437c-1.435.975-2.876-.335-2.877-1.834a2.322,2.322,0,0,1,2.449-2.174,3.492,3.492,0,0,1,3.133,1.931c1.232,2.285.354,4.94-.591,7.145-3.614,8.439-7.2,16.867-10.409,25.474Q367.828,374,363.38,389.166a.155.155,0,0,0,.3.082q4.665-15.871,10.493-31.367,2.916-7.74,6.121-15.367,1.643-3.911,3.362-7.787c.859-1.948,1.786-4.007,1.568-6.188a4.587,4.587,0,0,0-2.455-3.88,3.308,3.308,0,0,0-3.712.591c-1.64,1.814.485,5.267,2.769,3.689,1.2-.832,1.555-2.544,1.631-3.9a22.609,22.609,0,0,0-.81-6.979c-1.266-4.8-3.623-9.2-5.613-13.715a102.18,102.18,0,0,1-8.445-35.194c-.011-.2-.319-.2-.308,0" transform="translate(17222.309 2940.148)" fill="#173449"/>
      <path id="Path_356" data-name="Path 356" d="M381.787,369.949a76.336,76.336,0,0,1,14.69-16.673c.152-.128-.067-.346-.217-.218a76.576,76.576,0,0,0-14.739,16.735c-.109.167.158.321.266.156" transform="translate(17221.164 2934.835)" fill="#173449"/>
      <path id="Path_357" data-name="Path 357" d="M388.323,359.1a12.867,12.867,0,0,1,3.885-4.862c.155-.119,0-.387-.156-.267a13.18,13.18,0,0,0-4,4.973c-.082.179.184.335.266.156" transform="translate(17220.75 2934.776)" fill="#173449"/>
      <path id="Path_358" data-name="Path 358" d="M412.772,159.566a21.6,21.6,0,0,0,.559,2.867c.694,1.98,2.549,3.309,3.62,5.113,1.5,2.525,1.31,5.739.407,8.531a11.656,11.656,0,0,0-.918,3.862c.084,2.684,2.477,4.677,3.467,7.174,1.86,4.686-2.052,10.206-6.955,11.373s-10.068-1.033-13.95-4.248a27.251,27.251,0,0,1-9.9-20.2,24.524,24.524,0,0,1,9.867-20.023c1.871-1.344,4.533-2.56,6.845-1.68,1.069.408,1.933,1.258,2.968,1.757a5.637,5.637,0,0,1,1.977,1.361,9.1,9.1,0,0,1,2.011,4.11" transform="translate(17220.682 2947.543)" fill="#173449"/>
      <path id="Path_359" data-name="Path 359" d="M369.141,186.7a41.252,41.252,0,0,1,3.165,9.08,13.871,13.871,0,0,1-1.245,9.358,6.721,6.721,0,0,1-3.589,3.171c-3.859,1.238-8-2.472-11.883-1.3-3.6,1.086-4.77,5.839-3.752,9.462,1.442,5.131,5.88,9.03,10.851,10.953s10.438,2.116,15.76,1.844c5.194-.266,10.813-1.171,14.386-4.952a15.163,15.163,0,0,0,3.245-5.767c2.576-7.912.491-16.645-3.056-24.171s-8.5-14.32-12.1-21.822c-.739-1.541-1.531-3.228-3.065-3.981-1.842-.9-4.069-.115-5.8.983a17.775,17.775,0,0,0-5.351,5.28c-.355.543-.636,1.121-.97,1.675-.3.494-.62.734-.478,1.329a27.1,27.1,0,0,0,1.834,4.188Z" transform="translate(17223.061 2946.522)" fill="#173449"/>
      <path id="Path_360" data-name="Path 360" d="M410.978,187.124c-1.151-3.406-1.632-4.414-2.643-7.726,2.4-.277,5.225-.906,6.95-2.8,1.193-1.311.075-3.587-.379-5.3a32.939,32.939,0,0,0-5.091-10.759,5.188,5.188,0,0,0-1.841-1.771,3.985,3.985,0,0,0-3.037.021,7.542,7.542,0,0,0-4.251,4.177,9.827,9.827,0,0,0-.411,6.017,2.364,2.364,0,0,0-3.331-.419,4.085,4.085,0,0,0-1.166,2.4,5.311,5.311,0,0,0-.112,1.58,3.356,3.356,0,0,0,5.967,1.721c.286,4.558.645,10.039.931,14.6l-8.737,8.731s15.253,10.017,24.011,5.919c0,0,.627-13.342,2.075-15.486Z" transform="translate(17220.383 2947.136)" fill="#ff9385"/>
      <path id="Path_361" data-name="Path 361" d="M399.224,170.72a2.305,2.305,0,0,0,.1,3.913.154.154,0,0,0,.156-.266,2,2,0,0,1-.1-3.381c.163-.111.008-.378-.155-.266" transform="translate(17220.107 2946.364)" fill="#173449"/>
      <path id="Path_362" data-name="Path 362" d="M398.661,173.037a.986.986,0,0,1,1.065.581.154.154,0,0,0,.266-.156,1.292,1.292,0,0,0-1.413-.722.155.155,0,0,0-.109.189.158.158,0,0,0,.19.108" transform="translate(17220.09 2946.235)" fill="#173449"/>
      <path id="Path_363" data-name="Path 363" d="M408.941,191.085a2.586,2.586,0,0,0-1.582-.5.154.154,0,0,0,0,.308,2.307,2.307,0,0,1,1.427.454A.155.155,0,0,0,409,191.3a.157.157,0,0,0-.055-.211" transform="translate(17219.537 2945.105)" fill="#173449"/>
      <path id="Path_364" data-name="Path 364" d="M410.637,190.815a2.642,2.642,0,0,1,.348-1.361.154.154,0,0,0-.266-.156,2.957,2.957,0,0,0-.391,1.517.154.154,0,0,0,.308,0" transform="translate(17219.34 2945.192)" fill="#173449"/>
      <path id="Path_365" data-name="Path 365" d="M405.971,168.133a2.724,2.724,0,0,0,1.744,1.652,1.241,1.241,0,0,0,1.126-.187,1.357,1.357,0,0,0,.416-.991,9.474,9.474,0,0,0-.118-1.551c-.021-.2-.33-.2-.309,0a10.563,10.563,0,0,1,.123,1.488.921.921,0,0,1-.605.967,1.591,1.591,0,0,1-1.256-.378,2.51,2.51,0,0,1-.823-1.079c-.071-.183-.37-.1-.3.082" transform="translate(17219.617 2946.603)" fill="#173449"/>
      <path id="Path_366" data-name="Path 366" d="M411.274,166.251a2.406,2.406,0,0,0,1.736,1.2,1.232,1.232,0,0,0,.833-.3,1.053,1.053,0,0,0,.27-1,4.664,4.664,0,0,0-.212-.7l-.261-.756c-.065-.186-.363-.107-.3.081q.126.367.254.734a5.958,5.958,0,0,1,.206.655.725.725,0,0,1-.4.9c-.79.323-1.437-.421-1.866-.976a.159.159,0,0,0-.211-.055.155.155,0,0,0-.055.211" transform="translate(17219.281 2946.749)" fill="#173449"/>
      <path id="Path_367" data-name="Path 367" d="M404.8,166.921a5.726,5.726,0,0,1,1.79-2.248.258.258,0,0,0,.09-.343.252.252,0,0,0-.343-.09,6.2,6.2,0,0,0-1.97,2.428.257.257,0,0,0,.09.343.252.252,0,0,0,.343-.09" transform="translate(17219.719 2946.774)" fill="#173449"/>
      <path id="Path_368" data-name="Path 368" d="M410.066,163.354a7.049,7.049,0,0,1,1.86-.455.258.258,0,0,0,.251-.251.252.252,0,0,0-.251-.25,7.481,7.481,0,0,0-1.993.473.257.257,0,0,0-.175.308.253.253,0,0,0,.308.175" transform="translate(17219.377 2946.888)" fill="#173449"/>
      <path id="Path_369" data-name="Path 369" d="M403.91,177.581a8.064,8.064,0,0,0,1.1,1.749,3.1,3.1,0,0,0,1.288,1.048,8.15,8.15,0,0,0,1.227.273c.375.066.754.133,1.133.165.2.016.2-.292,0-.308a10.889,10.889,0,0,1-2.214-.406,2.784,2.784,0,0,1-1.217-.99,7.78,7.78,0,0,1-1.047-1.686c-.082-.18-.349-.023-.266.156" transform="translate(17219.746 2945.943)" fill="#173449"/>
      <path id="Path_370" data-name="Path 370" d="M409,170.851c.14.481-.348,1.044-1.089,1.259s-1.455,0-1.593-.482.348-1.044,1.089-1.258,1.454,0,1.593.481" transform="translate(17219.596 2946.389)" fill="#f47471"/>
      <path id="Path_371" data-name="Path 371" d="M415,168.661a.835.835,0,1,1-1.052-.638.871.871,0,0,1,1.052.638" transform="translate(17219.148 2946.534)" fill="#f47471"/>
      <path id="Path_372" data-name="Path 372" d="M412.068,169.462c.307-.3.838-.524,1.2-.174a.467.467,0,0,1,.136.51.578.578,0,0,1-.343.294,1.522,1.522,0,0,1-.66.079.155.155,0,0,0-.155.154.158.158,0,0,0,.155.155,1.244,1.244,0,0,0,1.282-.555.758.758,0,0,0-.128-.778.937.937,0,0,0-.768-.343,1.461,1.461,0,0,0-.933.441c-.142.139.076.357.218.218" transform="translate(17219.246 2946.483)" fill="#173449"/>
      <path id="Path_373" data-name="Path 373" d="M411.732,172.374a2.919,2.919,0,0,0-.129,1.324,1.236,1.236,0,0,0,.573.829.976.976,0,0,0,1.026-.077,1.578,1.578,0,0,0,.608-.937,9.112,9.112,0,0,0,.175-1.445c.02-.212-.311-.211-.33,0a8.367,8.367,0,0,1-.169,1.376,1.112,1.112,0,0,1-.7.842.692.692,0,0,1-.8-.468,2.154,2.154,0,0,1,.067-1.356.165.165,0,0,0-.318-.088" transform="translate(17219.262 2946.287)" fill="#173449"/>
      <path id="Path_374" data-name="Path 374" d="M412.109,175.819a.658.658,0,0,0,1.085-.258.165.165,0,0,0-.319-.089c0,.011-.007.02-.008.031-.011.037.015-.031,0,0a.273.273,0,0,1-.025.046c-.009.015-.034.033,0,0a.116.116,0,0,0-.017.02.463.463,0,0,1-.037.037c-.034.028.022-.015,0,0l-.022.015a.439.439,0,0,1-.046.025c-.015.008-.048.012,0,0a.187.187,0,0,0-.024.009.42.42,0,0,1-.056.016l-.031.007c-.03.006.041,0,.008,0l-.058,0c-.019,0-.038,0-.057,0,.045,0,.025,0,.009,0l-.03-.007c-.019,0-.036-.014-.054-.018.044.011.022.01.008,0a.194.194,0,0,1-.027-.015l-.025-.016c-.024-.017.029.026.006,0s-.03-.028-.044-.043a.165.165,0,0,0-.233,0,.168.168,0,0,0,0,.232" transform="translate(17219.23 2946.069)" fill="#173449"/>
      <path id="Path_375" data-name="Path 375" d="M419.465,258.71a83.071,83.071,0,0,0,16.9-46.793,14.9,14.9,0,0,0-.488-5.326,16.357,16.357,0,0,0-3.2-5.02q-4.1-4.983-8.207-9.963a6.307,6.307,0,0,0-2.935-1.9c-1.312-.582-4.116-1.19-4.919,0,.286,4.025-.359,9.251-3.779,11.391-2.682,1.68-6.186,1.561-9.151.456a31.2,31.2,0,0,1-8.009-5.024c-4.544,1.949-8.591,6.43-9.247,11.331a25.742,25.742,0,0,0,.026,5.607,125.509,125.509,0,0,0,2.86,18.007c.075.319.2.693.517.78s.591-.485.27-.553c-1.636-.338-4.294.641-4.364,2.309-.024.576.155,1.2-.133,1.7-.657,1.144-2.535.176-3.706.783-1.385.719-.787,2.815.033,4.142,4.141,6.706,9.405,12.917,16.228,16.864s13.952,4.061,21.3,1.208" transform="translate(17221.189 2945.205)" fill="#ffbf73"/>
      <path id="Path_376" data-name="Path 376" d="M399.269,123.252c-3.045-1.137-6.6-2.506-7.489-5.632-.376-1.32.241-3.167,1.612-3.152.9.01,1.57.835,2.024,1.618s.914,1.671,1.762,1.988,2.042-.534,1.622-1.336a1.784,1.784,0,0,0-.751-.632c-3.629-2.1-6.273-6.285-5.568-10.416a2.119,2.119,0,0,1,.455-1.117,1.684,1.684,0,0,1,2.45.407,4.876,4.876,0,0,1,.648,2.721,7.134,7.134,0,0,1-.391-4.9c.185-.654.627-1.39,1.3-1.356a1.387,1.387,0,0,1,.788.37c1.516,1.257,1.781,3.442,1.937,5.4l-.669-3.816c-.155-.884-.088-2.116.8-2.277.771-.141,1.31.731,1.564,1.473a20.393,20.393,0,0,1,1.1,6.816,31.8,31.8,0,0,1-.141-5.416c1.373-.02,2.379,1.372,2.629,2.723s0,2.748.185,4.109a9.809,9.809,0,0,0,1.153,3.276,18.749,18.749,0,0,0,4.562,5.6c1.442,1.2,3.267,2.682,2.807,4.5a4.483,4.483,0,0,1-1.762,2.167c-.582.481-1.338,1.556-2.163,1.554a3.363,3.363,0,0,1-1.431-.6q-.838-.447-1.685-.872-1.679-.843-3.4-1.6-1.949-.859-3.946-1.6" transform="translate(17220.52 2950.763)" fill="#ff9385"/>
      <path id="Path_377" data-name="Path 377" d="M431.343,209.455a373,373,0,0,0,28.1-36.96c3.013-4.523,6.056-9.82,4.709-15.085-.906-3.54-3.642-6.281-6.346-8.739-13.018-11.836-27.3-22.169-43.406-29.243-1.871,3.666-3.661,7.686-6.167,10.951A215.622,215.622,0,0,1,438.7,153.317c2.312,2.085,4.793,5.008,3.741,7.938a6.016,6.016,0,0,0-2.362.245,1.441,1.441,0,0,0-.689,2.259,3.3,3.3,0,0,1,.68,2.506,8.1,8.1,0,0,1-2.432,3.958c-5.368,5.8-11.186,11.446-18.373,14.739-.271-.434.768,2.318.258,2.289,2.14,9.963,6.171,13.724,11.822,22.2" transform="translate(17219.473 2949.605)" fill="#ffbf73"/>
      <path id="Path_378" data-name="Path 378" d="M395.773,102.983c-.927,1.756.071,4.037.738,5.72a25.851,25.851,0,0,0,3.23,5.812c.116.158.384,0,.266-.155a25.627,25.627,0,0,1-3.047-5.366,23.544,23.544,0,0,1-.981-2.825,4.079,4.079,0,0,1,.06-3.03c.093-.175-.173-.331-.266-.156" transform="translate(17220.285 2950.65)" fill="#173449"/>
      <path id="Path_379" data-name="Path 379" d="M399.21,102.144a29.178,29.178,0,0,0,3.133,10.966c.091.177.357.021.266-.156a28.785,28.785,0,0,1-3.09-10.81c-.016-.2-.324-.2-.308,0" transform="translate(17220.043 2950.707)" fill="#173449"/>
      <path id="Path_380" data-name="Path 380" d="M402.879,104.239a23.754,23.754,0,0,0,1.376,9.36c.067.185.365.1.3-.082a23.513,23.513,0,0,1-1.366-9.278c.011-.2-.3-.2-.308,0" transform="translate(17219.813 2950.575)" fill="#173449"/>
      <path id="Path_381" data-name="Path 381" d="M395.411,111.439l.712-.435a.154.154,0,1,0-.156-.266l-.712.435a.154.154,0,0,0,.156.266" transform="translate(17220.299 2950.156)" fill="#173449"/>
      <path id="Path_382" data-name="Path 382" d="M395.387,110.422c.1-.069.205-.141.307-.212a.16.16,0,0,0,.071-.091.157.157,0,0,0-.016-.12.151.151,0,0,0-.092-.07.155.155,0,0,0-.119.016l-.307.211a.167.167,0,0,0-.071.093.153.153,0,0,0,.016.118.16.16,0,0,0,.092.072.155.155,0,0,0,.119-.017" transform="translate(17220.299 2950.206)" fill="#173449"/>
      <path id="Path_383" data-name="Path 383" d="M398.526,109.036h.414a.154.154,0,1,0,0-.308h-.414a.154.154,0,0,0,0,.308" transform="translate(17220.096 2950.281)" fill="#173449"/>
      <path id="Path_384" data-name="Path 384" d="M398.5,108.358l.206-.1a.185.185,0,0,0,.071-.092.169.169,0,0,0-.016-.119.156.156,0,0,0-.092-.071l-.041-.006a.152.152,0,0,0-.078.022l-.206.1a.109.109,0,0,0-.043.039.157.157,0,0,0-.012.171.156.156,0,0,0,.092.071l.041.006a.162.162,0,0,0,.078-.022" transform="translate(17220.104 2950.33)" fill="#173449"/>
      <path id="Path_385" data-name="Path 385" d="M401.358,108.258l.311.1a.155.155,0,0,0,.189-.108.151.151,0,0,0-.016-.119.17.17,0,0,0-.092-.071l-.311-.1a.153.153,0,0,0-.118.015.159.159,0,0,0-.071.092.155.155,0,0,0,.016.119.17.17,0,0,0,.092.071" transform="translate(17219.914 2950.331)" fill="#173449"/>
      <path id="Path_386" data-name="Path 386" d="M401.468,107.711l.517.107a.154.154,0,1,0,.081-.3l-.517-.107a.154.154,0,0,0-.081.3" transform="translate(17219.908 2950.365)" fill="#173449"/>
      <path id="Path_387" data-name="Path 387" d="M404.057,108.435a.682.682,0,0,0,.562.147.152.152,0,0,0,.092-.071.153.153,0,0,0-.055-.211l-.037-.016a.154.154,0,0,0-.082,0l-.013,0,.041-.006a.511.511,0,0,1-.141,0l.041.006a.522.522,0,0,1-.136-.037l.037.016a.552.552,0,0,1-.116-.067l.031.024,0,0a.169.169,0,0,0-.11-.045.158.158,0,0,0-.109.045.156.156,0,0,0-.045.11.151.151,0,0,0,.045.109" transform="translate(17219.74 2950.317)" fill="#173449"/>
      <path id="Path_388" data-name="Path 388" d="M404.495,107.931a.154.154,0,0,0,0-.308.154.154,0,0,0,0,.308" transform="translate(17219.719 2950.351)" fill="#173449"/>
      <path id="Path_389" data-name="Path 389" d="M392.164,119.034a2.261,2.261,0,0,0,.381-3.035c-.119-.156-.387,0-.266.156a1.96,1.96,0,0,1-.333,2.661c-.156.124.065.34.218.218" transform="translate(17220.506 2949.826)" fill="#173449"/>
      <path id="Path_390" data-name="Path 390" d="M403.093,123.093a1.225,1.225,0,0,0,1.429-.978,3.448,3.448,0,0,0-.3-2.305,4.906,4.906,0,0,0-.633-.938,1.418,1.418,0,0,1-.443-1.279c.269-.935,1.377-1.132,2.2-1.267.195-.032.112-.329-.082-.3a3.357,3.357,0,0,0-2.032.827,1.429,1.429,0,0,0-.236,1.71,10.873,10.873,0,0,0,.674.9,3.513,3.513,0,0,1,.54,1.214,2.874,2.874,0,0,1,.035,1.3.934.934,0,0,1-1.062.815.154.154,0,0,0-.082.3" transform="translate(17219.816 2949.82)" fill="#173449"/>
      <path id="Path_391" data-name="Path 391" d="M443.233,169.332a69.252,69.252,0,0,1,3.465,6.647c.082.18.348.023.267-.156a69.563,69.563,0,0,0-3.466-6.646.154.154,0,0,0-.266.156" transform="translate(17217.262 2946.464)" fill="#173449"/>
      <path id="Path_392" data-name="Path 392" d="M444.724,169.014l1.029,1.248a.155.155,0,0,0,.218,0,.158.158,0,0,0,0-.218l-1.029-1.248a.154.154,0,0,0-.218.218" transform="translate(17217.168 2946.486)" fill="#173449"/>
      <path id="Path_393" data-name="Path 393" d="M442.012,166.907a2.519,2.519,0,0,1-.867-1.5,1.155,1.155,0,0,1,.96-1.09c1.008-.28,2.047.267,3.073.132,1.986-.26,3.208-2.039,4.215-3.584.109-.168-.158-.322-.266-.156a9.406,9.406,0,0,1-2.351,2.766,3.741,3.741,0,0,1-1.73.682,8.167,8.167,0,0,1-1.839-.184,2.191,2.191,0,0,0-2.156.69c-.585.874.151,1.829.744,2.46.137.144.354-.074.218-.218" transform="translate(17217.412 2946.999)" fill="#173449"/>
      <path id="Path_394" data-name="Path 394" d="M393.319,194.2q-14.608-1.339-29.253-2.233a15.362,15.362,0,0,0,3.5-2.419,4.647,4.647,0,0,0-4.745-.214c8.234-8.774,16.61-18.2,24.845-26.976-3.074-2.089-6.65-5.167-9.725-7.256a117.74,117.74,0,0,0-31.42,32.839c-1.148,1.827-2.282,3.808-2.269,5.965.022,3.593,3.121,6.333,6.073,8.382a90.161,90.161,0,0,0,38.332,15.093c1.452-7.592,3.211-15.591,4.663-23.182" transform="translate(17223.518 2947.349)" fill="#ffbf73"/>
      <path id="Path_395" data-name="Path 395" d="M422.655,191.751l2.829,3.168c.132.149.349-.07.217-.217l-2.829-3.169c-.133-.148-.35.07-.217.218" transform="translate(17218.563 2945.049)" fill="#173449"/>
      <path id="Path_396" data-name="Path 396" d="M428.525,198.369c5.413,3.955,11.726,9.233,10.083,16.768-.85,3.892-3.6,6.472-6.986,8.311a59.55,59.55,0,0,1-11.2,4.6c-.189.057-.109.355.081.3a54.211,54.211,0,0,0,12.457-5.3,12.229,12.229,0,0,0,6.023-8.211c1.41-7.522-4.891-12.77-10.3-16.725-.16-.117-.315.15-.156.266" transform="translate(17218.709 2944.632)" fill="#173449"/>
      <path id="Path_397" data-name="Path 397" d="M414.611,231.093a69.945,69.945,0,0,1-12.51.95.154.154,0,0,0,0,.308,70.349,70.349,0,0,0,12.592-.961c.195-.032.112-.33-.082-.3" transform="translate(17219.869 2942.544)" fill="#173449"/>
      <path id="Path_398" data-name="Path 398" d="M425.234,230.838c-5.262,1.648-10.559,3.622-16.067,4.249-.195.022-.2.331,0,.308,5.538-.63,10.857-2.6,16.149-4.26.188-.059.108-.357-.082-.3" transform="translate(17219.424 2942.561)" fill="#173449"/>
      <path id="Path_399" data-name="Path 399" d="M385.818,239.026q2.126,4.5,4.681,8.78a.154.154,0,0,0,.266-.156q-2.552-4.274-4.681-8.78c-.084-.179-.35-.023-.266.156" transform="translate(17220.891 2942.058)" fill="#173449"/>
      <path id="Path_400" data-name="Path 400" d="M389.909,234.375a37.289,37.289,0,0,1,3.307,2.941,42.8,42.8,0,0,1,3,3.131c.483.588.94,1.54.348,2.221a1.669,1.669,0,0,1-2.034.188,6.44,6.44,0,0,1-2.564-3.16c-.079-.182-.345-.025-.266.156a7.506,7.506,0,0,0,2.175,2.94,2.23,2.23,0,0,0,2.7.282c.912-.689.567-1.929-.028-2.7a32.663,32.663,0,0,0-2.823-2.985,38.415,38.415,0,0,0-3.6-3.231c-.155-.12-.375.1-.218.218" transform="translate(17220.635 2942.353)" fill="#173449"/>
      <path id="Path_401" data-name="Path 401" d="M390.693,238.179a5.926,5.926,0,0,1-.678-1.894.154.154,0,1,0-.3.082,6.162,6.162,0,0,0,.709,1.967.154.154,0,0,0,.266-.156" transform="translate(17220.645 2942.223)" fill="#173449"/>
      <path id="Path_402" data-name="Path 402" d="M388.7,210.88a123.021,123.021,0,0,0-2.191,14.517c-.018.2.29.2.308,0a122.657,122.657,0,0,1,2.18-14.436c.041-.193-.256-.275-.3-.081" transform="translate(17220.846 2943.829)" fill="#173449"/>
      <path id="Path_403" data-name="Path 403" d="M358.912,192.474a23.27,23.27,0,0,1,7.4-1.285,5.965,5.965,0,0,1,1.207.02c1.024.214-.022.943-.318,1.163l-8.39,6.22c-.157.117,0,.385.155.266l7.806-5.787c.364-.27,2.406-1.575,1.175-2.1a1.935,1.935,0,0,0-.688-.082q-.6-.018-1.207-.006-1.12.024-2.234.155a23.881,23.881,0,0,0-4.987,1.137c-.187.064-.107.362.081.3" transform="translate(17222.604 2945.087)" fill="#173449"/>
      <path id="Path_404" data-name="Path 404" d="M357.057,200.362a8.446,8.446,0,0,0-2.3,1.907c-.126.151.09.37.218.217a8.221,8.221,0,0,1,2.234-1.859.154.154,0,0,0-.156-.266" transform="translate(17222.855 2944.489)" fill="#173449"/>
      <path id="Path_405" data-name="Path 405" d="M395.807,159.761l-3.074,6.576c-1.326,2.837-2.651,6.2-1.19,8.968,1.724,3.267,6.4,3.867,8.482,6.917a9.77,9.77,0,0,1,1.274,5.726,19.733,19.733,0,0,1-2.182,9.315,11.118,11.118,0,0,1-7.428,5.686c-4.565.827-9.164-2.082-11.684-5.978a12.854,12.854,0,0,1-2.238-7.291,32.672,32.672,0,0,1,1.3-6.257,18.758,18.758,0,0,0-.229-10.3,11.9,11.9,0,0,0-6.86-7.4,8.775,8.775,0,0,0-9.537,2.251c-1.861-5.918,1.441-13.13,7.337-15.06a14.709,14.709,0,0,0,2.86-1.021,8.362,8.362,0,0,0,2.526-2.625c2.012-2.9,3.737-6.037,6.244-8.517,5.515-5.453,14.174-6.824,21.7-4.959a12.688,12.688,0,0,1,5.17,2.342c2.916,2.437,3.713,6.589,3.706,10.39a6.255,6.255,0,0,1-.349,2.4c-.87,2.091-3.43,2.758-5.6,3.4-3.651,1.078-8.617,1.986-10.23,5.435" transform="translate(17222.4 2948.62)" fill="#173449"/>
    </g>
  </g>
</svg>
